<svg width="16538" height="5088" viewBox="0 0 16538 5088" fill="none" xmlns="http://www.w3.org/2000/svg">
<circle cx="38.9884" cy="38.9884" r="38.9884" fill="#D9D9D9"/>
<circle cx="38.9884" cy="754.642" r="38.9884" fill="#D9D9D9"/>
<circle cx="754.641" cy="754.642" r="38.9884" fill="#D9D9D9"/>
<circle cx="754.641" cy="38.9884" r="38.9884" fill="#D9D9D9"/>
<circle cx="1470.3" cy="38.9884" r="38.9884" fill="#D9D9D9"/>
<circle cx="1470.3" cy="754.642" r="38.9884" fill="#D9D9D9"/>
<circle cx="2185.95" cy="754.642" r="38.9884" fill="#D9D9D9"/>
<circle cx="2185.95" cy="38.9884" r="38.9884" fill="#D9D9D9"/>
<circle cx="38.9884" cy="1470.3" r="38.9884" fill="#D9D9D9"/>
<circle cx="38.9884" cy="2185.95" r="38.9884" fill="#D9D9D9"/>
<circle cx="754.641" cy="2185.95" r="38.9884" fill="#D9D9D9"/>
<circle cx="754.641" cy="1470.3" r="38.9884" fill="#D9D9D9"/>
<circle cx="1470.3" cy="1470.3" r="38.9884" fill="#D9D9D9"/>
<circle cx="1470.3" cy="2185.95" r="38.9884" fill="#D9D9D9"/>
<circle cx="2185.95" cy="2185.95" r="38.9884" fill="#D9D9D9"/>
<circle cx="2185.95" cy="1470.3" r="38.9884" fill="#D9D9D9"/>
<circle cx="38.9884" cy="2901.6" r="38.9884" fill="#D9D9D9"/>
<circle cx="38.9884" cy="3617.25" r="38.9884" fill="#D9D9D9"/>
<circle cx="754.641" cy="3617.25" r="38.9884" fill="#D9D9D9"/>
<circle cx="754.641" cy="2901.6" r="38.9884" fill="#D9D9D9"/>
<circle cx="1470.3" cy="2901.6" r="38.9884" fill="#D9D9D9"/>
<circle cx="1470.3" cy="3617.25" r="38.9884" fill="#D9D9D9"/>
<circle cx="2185.95" cy="3617.25" r="38.9884" fill="#D9D9D9"/>
<circle cx="2185.95" cy="2901.6" r="38.9884" fill="#D9D9D9"/>
<circle cx="38.9884" cy="4332.91" r="38.9884" fill="#D9D9D9"/>
<circle cx="38.9884" cy="5048.56" r="38.9884" fill="#D9D9D9"/>
<circle cx="754.641" cy="5048.56" r="38.9884" fill="#D9D9D9"/>
<circle cx="754.641" cy="4332.91" r="38.9884" fill="#D9D9D9"/>
<circle cx="1470.3" cy="4332.91" r="38.9884" fill="#D9D9D9"/>
<circle cx="1470.3" cy="5048.56" r="38.9884" fill="#D9D9D9"/>
<circle cx="2185.95" cy="5048.56" r="38.9884" fill="#D9D9D9"/>
<circle cx="2185.95" cy="4332.91" r="38.9884" fill="#D9D9D9"/>
<circle cx="2901.6" cy="38.9884" r="38.9884" fill="#D9D9D9"/>
<circle cx="2901.6" cy="754.642" r="38.9884" fill="#D9D9D9"/>
<circle cx="3617.25" cy="754.642" r="38.9884" fill="#D9D9D9"/>
<circle cx="3617.25" cy="38.9884" r="38.9884" fill="#D9D9D9"/>
<circle cx="4332.91" cy="38.9884" r="38.9884" fill="#D9D9D9"/>
<circle cx="4332.91" cy="754.642" r="38.9884" fill="#D9D9D9"/>
<circle cx="5048.56" cy="754.642" r="38.9884" fill="#D9D9D9"/>
<circle cx="5048.56" cy="38.9884" r="38.9884" fill="#D9D9D9"/>
<circle cx="2901.6" cy="1470.3" r="38.9884" fill="#D9D9D9"/>
<circle cx="2901.6" cy="2185.95" r="38.9884" fill="#D9D9D9"/>
<circle cx="3617.25" cy="2185.95" r="38.9884" fill="#D9D9D9"/>
<circle cx="3617.25" cy="1470.3" r="38.9884" fill="#D9D9D9"/>
<circle cx="4332.91" cy="1470.3" r="38.9884" fill="#D9D9D9"/>
<circle cx="4332.91" cy="2185.95" r="38.9884" fill="#D9D9D9"/>
<circle cx="5048.56" cy="2185.95" r="38.9884" fill="#D9D9D9"/>
<circle cx="5048.56" cy="1470.3" r="38.9884" fill="#D9D9D9"/>
<circle cx="2901.6" cy="2901.6" r="38.9884" fill="#D9D9D9"/>
<circle cx="2901.6" cy="3617.25" r="38.9884" fill="#D9D9D9"/>
<circle cx="3617.25" cy="3617.25" r="38.9884" fill="#D9D9D9"/>
<circle cx="3617.25" cy="2901.6" r="38.9884" fill="#D9D9D9"/>
<circle cx="4332.91" cy="2901.6" r="38.9884" fill="#D9D9D9"/>
<circle cx="4332.91" cy="3617.25" r="38.9884" fill="#D9D9D9"/>
<circle cx="5048.56" cy="3617.25" r="38.9884" fill="#D9D9D9"/>
<circle cx="5048.56" cy="2901.6" r="38.9884" fill="#D9D9D9"/>
<circle cx="2901.6" cy="4332.91" r="38.9884" fill="#D9D9D9"/>
<circle cx="2901.6" cy="5048.56" r="38.9884" fill="#D9D9D9"/>
<circle cx="3617.25" cy="5048.56" r="38.9884" fill="#D9D9D9"/>
<circle cx="3617.25" cy="4332.91" r="38.9884" fill="#D9D9D9"/>
<circle cx="4332.91" cy="4332.91" r="38.9884" fill="#D9D9D9"/>
<circle cx="4332.91" cy="5048.56" r="38.9884" fill="#D9D9D9"/>
<circle cx="5048.56" cy="5048.56" r="38.9884" fill="#D9D9D9"/>
<circle cx="5048.56" cy="4332.91" r="38.9884" fill="#D9D9D9"/>
<circle cx="5764.21" cy="38.9884" r="38.9884" fill="#D9D9D9"/>
<circle cx="5764.21" cy="754.642" r="38.9884" fill="#D9D9D9"/>
<circle cx="6479.87" cy="754.642" r="38.9884" fill="#D9D9D9"/>
<circle cx="6479.87" cy="38.9884" r="38.9884" fill="#D9D9D9"/>
<circle cx="7195.52" cy="38.9884" r="38.9884" fill="#D9D9D9"/>
<circle cx="7195.52" cy="754.642" r="38.9884" fill="#D9D9D9"/>
<circle cx="7911.17" cy="754.642" r="38.9884" fill="#D9D9D9"/>
<circle cx="7911.17" cy="38.9884" r="38.9884" fill="#D9D9D9"/>
<circle cx="5764.21" cy="1470.3" r="38.9884" fill="#D9D9D9"/>
<circle cx="5764.21" cy="2185.95" r="38.9884" fill="#D9D9D9"/>
<circle cx="6479.87" cy="2185.95" r="38.9884" fill="#D9D9D9"/>
<circle cx="6479.87" cy="1470.3" r="38.9884" fill="#D9D9D9"/>
<circle cx="7195.52" cy="1470.3" r="38.9884" fill="#D9D9D9"/>
<circle cx="7195.52" cy="2185.95" r="38.9884" fill="#D9D9D9"/>
<circle cx="7911.17" cy="2185.95" r="38.9884" fill="#D9D9D9"/>
<circle cx="7911.17" cy="1470.3" r="38.9884" fill="#D9D9D9"/>
<circle cx="5764.21" cy="2901.6" r="38.9884" fill="#D9D9D9"/>
<circle cx="5764.21" cy="3617.25" r="38.9884" fill="#D9D9D9"/>
<circle cx="6479.87" cy="3617.25" r="38.9884" fill="#D9D9D9"/>
<circle cx="6479.87" cy="2901.6" r="38.9884" fill="#D9D9D9"/>
<circle cx="7195.52" cy="2901.6" r="38.9884" fill="#D9D9D9"/>
<circle cx="7195.52" cy="3617.25" r="38.9884" fill="#D9D9D9"/>
<circle cx="7911.17" cy="3617.25" r="38.9884" fill="#D9D9D9"/>
<circle cx="7911.17" cy="2901.6" r="38.9884" fill="#D9D9D9"/>
<circle cx="5764.21" cy="4332.91" r="38.9884" fill="#D9D9D9"/>
<circle cx="5764.21" cy="5048.56" r="38.9884" fill="#D9D9D9"/>
<circle cx="6479.87" cy="5048.56" r="38.9884" fill="#D9D9D9"/>
<circle cx="6479.87" cy="4332.91" r="38.9884" fill="#D9D9D9"/>
<circle cx="7195.52" cy="4332.91" r="38.9884" fill="#D9D9D9"/>
<circle cx="7195.52" cy="5048.56" r="38.9884" fill="#D9D9D9"/>
<circle cx="7911.17" cy="5048.56" r="38.9884" fill="#D9D9D9"/>
<circle cx="7911.17" cy="4332.91" r="38.9884" fill="#D9D9D9"/>
<circle cx="8626.83" cy="38.9884" r="38.9884" fill="#D9D9D9"/>
<circle cx="8626.83" cy="754.642" r="38.9884" fill="#D9D9D9"/>
<circle cx="9342.48" cy="754.642" r="38.9884" fill="#D9D9D9"/>
<circle cx="9342.48" cy="38.9884" r="38.9884" fill="#D9D9D9"/>
<circle cx="10058.1" cy="38.9884" r="38.9884" fill="#D9D9D9"/>
<circle cx="10058.1" cy="754.642" r="38.9884" fill="#D9D9D9"/>
<circle cx="10773.8" cy="754.642" r="38.9884" fill="#D9D9D9"/>
<circle cx="10773.8" cy="38.9884" r="38.9884" fill="#D9D9D9"/>
<circle cx="8626.83" cy="1470.3" r="38.9884" fill="#D9D9D9"/>
<circle cx="8626.83" cy="2185.95" r="38.9884" fill="#D9D9D9"/>
<circle cx="9342.48" cy="2185.95" r="38.9884" fill="#D9D9D9"/>
<circle cx="9342.48" cy="1470.3" r="38.9884" fill="#D9D9D9"/>
<circle cx="10058.1" cy="1470.3" r="38.9884" fill="#D9D9D9"/>
<circle cx="10058.1" cy="2185.95" r="38.9884" fill="#D9D9D9"/>
<circle cx="10773.8" cy="2185.95" r="38.9884" fill="#D9D9D9"/>
<circle cx="10773.8" cy="1470.3" r="38.9884" fill="#D9D9D9"/>
<circle cx="8626.83" cy="2901.6" r="38.9884" fill="#D9D9D9"/>
<circle cx="8626.83" cy="3617.25" r="38.9884" fill="#D9D9D9"/>
<circle cx="9342.48" cy="3617.25" r="38.9884" fill="#D9D9D9"/>
<circle cx="9342.48" cy="2901.6" r="38.9884" fill="#D9D9D9"/>
<circle cx="10058.1" cy="2901.6" r="38.9884" fill="#D9D9D9"/>
<circle cx="10058.1" cy="3617.25" r="38.9884" fill="#D9D9D9"/>
<circle cx="10773.8" cy="3617.25" r="38.9884" fill="#D9D9D9"/>
<circle cx="10773.8" cy="2901.6" r="38.9884" fill="#D9D9D9"/>
<circle cx="8626.83" cy="4332.91" r="38.9884" fill="#D9D9D9"/>
<circle cx="8626.83" cy="5048.56" r="38.9884" fill="#D9D9D9"/>
<circle cx="9342.48" cy="5048.56" r="38.9884" fill="#D9D9D9"/>
<circle cx="9342.48" cy="4332.91" r="38.9884" fill="#D9D9D9"/>
<circle cx="10058.1" cy="4332.91" r="38.9884" fill="#D9D9D9"/>
<circle cx="10058.1" cy="5048.56" r="38.9884" fill="#D9D9D9"/>
<circle cx="10773.8" cy="5048.56" r="38.9884" fill="#D9D9D9"/>
<circle cx="10773.8" cy="4332.91" r="38.9884" fill="#D9D9D9"/>
<circle cx="11489.4" cy="38.9884" r="38.9884" fill="#D9D9D9"/>
<circle cx="11489.4" cy="754.642" r="38.9884" fill="#D9D9D9"/>
<circle cx="12205.1" cy="754.642" r="38.9884" fill="#D9D9D9"/>
<circle cx="12205.1" cy="38.9884" r="38.9884" fill="#D9D9D9"/>
<circle cx="12920.7" cy="38.9884" r="38.9884" fill="#D9D9D9"/>
<circle cx="12920.7" cy="754.642" r="38.9884" fill="#D9D9D9"/>
<circle cx="13636.4" cy="754.642" r="38.9884" fill="#D9D9D9"/>
<circle cx="13636.4" cy="38.9884" r="38.9884" fill="#D9D9D9"/>
<circle cx="11489.4" cy="1470.3" r="38.9884" fill="#D9D9D9"/>
<circle cx="11489.4" cy="2185.95" r="38.9884" fill="#D9D9D9"/>
<circle cx="12205.1" cy="2185.95" r="38.9884" fill="#D9D9D9"/>
<circle cx="12205.1" cy="1470.3" r="38.9884" fill="#D9D9D9"/>
<circle cx="12920.7" cy="1470.3" r="38.9884" fill="#D9D9D9"/>
<circle cx="12920.7" cy="2185.95" r="38.9884" fill="#D9D9D9"/>
<circle cx="13636.4" cy="2185.95" r="38.9884" fill="#D9D9D9"/>
<circle cx="13636.4" cy="1470.3" r="38.9884" fill="#D9D9D9"/>
<circle cx="11489.4" cy="2901.6" r="38.9884" fill="#D9D9D9"/>
<circle cx="11489.4" cy="3617.25" r="38.9884" fill="#D9D9D9"/>
<circle cx="12205.1" cy="3617.25" r="38.9884" fill="#D9D9D9"/>
<circle cx="12205.1" cy="2901.6" r="38.9884" fill="#D9D9D9"/>
<circle cx="12920.7" cy="2901.6" r="38.9884" fill="#D9D9D9"/>
<circle cx="12920.7" cy="3617.25" r="38.9884" fill="#D9D9D9"/>
<circle cx="13636.4" cy="3617.25" r="38.9884" fill="#D9D9D9"/>
<circle cx="13636.4" cy="2901.6" r="38.9884" fill="#D9D9D9"/>
<circle cx="11489.4" cy="4332.91" r="38.9884" fill="#D9D9D9"/>
<circle cx="11489.4" cy="5048.56" r="38.9884" fill="#D9D9D9"/>
<circle cx="12205.1" cy="5048.56" r="38.9884" fill="#D9D9D9"/>
<circle cx="12205.1" cy="4332.91" r="38.9884" fill="#D9D9D9"/>
<circle cx="12920.7" cy="4332.91" r="38.9884" fill="#D9D9D9"/>
<circle cx="12920.7" cy="5048.56" r="38.9884" fill="#D9D9D9"/>
<circle cx="13636.4" cy="5048.56" r="38.9884" fill="#D9D9D9"/>
<circle cx="13636.4" cy="4332.91" r="38.9884" fill="#D9D9D9"/>
<circle cx="14352.1" cy="38.9884" r="38.9884" fill="#D9D9D9"/>
<circle cx="14352.1" cy="754.642" r="38.9884" fill="#D9D9D9"/>
<circle cx="15067.7" cy="754.642" r="38.9884" fill="#D9D9D9"/>
<circle cx="15067.7" cy="38.9884" r="38.9884" fill="#D9D9D9"/>
<circle cx="15783.4" cy="38.9884" r="38.9884" fill="#D9D9D9"/>
<circle cx="15783.4" cy="754.642" r="38.9884" fill="#D9D9D9"/>
<circle cx="16499" cy="754.642" r="38.9884" fill="#D9D9D9"/>
<circle cx="16499" cy="38.9884" r="38.9884" fill="#D9D9D9"/>
<circle cx="14352.1" cy="1470.3" r="38.9884" fill="#D9D9D9"/>
<circle cx="14352.1" cy="2185.95" r="38.9884" fill="#D9D9D9"/>
<circle cx="15067.7" cy="2185.95" r="38.9884" fill="#D9D9D9"/>
<circle cx="15067.7" cy="1470.3" r="38.9884" fill="#D9D9D9"/>
<circle cx="15783.4" cy="1470.3" r="38.9884" fill="#D9D9D9"/>
<circle cx="15783.4" cy="2185.95" r="38.9884" fill="#D9D9D9"/>
<circle cx="16499" cy="2185.95" r="38.9884" fill="#D9D9D9"/>
<circle cx="16499" cy="1470.3" r="38.9884" fill="#D9D9D9"/>
<circle cx="14352.1" cy="2901.6" r="38.9884" fill="#D9D9D9"/>
<circle cx="14352.1" cy="3617.25" r="38.9884" fill="#D9D9D9"/>
<circle cx="15067.7" cy="3617.25" r="38.9884" fill="#D9D9D9"/>
<circle cx="15067.7" cy="2901.6" r="38.9884" fill="#D9D9D9"/>
<circle cx="15783.4" cy="2901.6" r="38.9884" fill="#D9D9D9"/>
<circle cx="15783.4" cy="3617.25" r="38.9884" fill="#D9D9D9"/>
<circle cx="16499" cy="3617.25" r="38.9884" fill="#D9D9D9"/>
<circle cx="16499" cy="2901.6" r="38.9884" fill="#D9D9D9"/>
<circle cx="14352.1" cy="4332.91" r="38.9884" fill="#D9D9D9"/>
<circle cx="14352.1" cy="5048.56" r="38.9884" fill="#D9D9D9"/>
<circle cx="15067.7" cy="5048.56" r="38.9884" fill="#D9D9D9"/>
<circle cx="15067.7" cy="4332.91" r="38.9884" fill="#D9D9D9"/>
<circle cx="15783.4" cy="4332.91" r="38.9884" fill="#D9D9D9"/>
<circle cx="15783.4" cy="5048.56" r="38.9884" fill="#D9D9D9"/>
<circle cx="16499" cy="5048.56" r="38.9884" fill="#D9D9D9"/>
<circle cx="16499" cy="4332.91" r="38.9884" fill="#D9D9D9"/>
</svg>
