<svg width="103" height="103" viewBox="0 0 103 103" fill="none" xmlns="http://www.w3.org/2000/svg">
<path d="M63.75 94.5V77.5C64.3412 72.176 62.8147 66.833 59.5 62.625C72.25 62.625 85 54.125 85 39.25C85.34 33.9375 83.8525 28.71 80.75 24.375C81.94 19.4875 81.94 14.3875 80.75 9.5C80.75 9.5 76.5 9.5 68 15.875C56.78 13.75 45.22 13.75 34 15.875C25.5 9.5 21.25 9.5 21.25 9.5C19.975 14.3875 19.975 19.4875 21.25 24.375C18.1554 28.6925 16.6535 33.9493 17 39.25C17 54.125 29.75 62.625 42.5 62.625C40.8425 64.7075 39.61 67.0875 38.8875 69.6375C38.165 72.1875 37.9525 74.865 38.25 77.5V94.5" stroke="black" stroke-width="6" stroke-linecap="round" stroke-linejoin="round"/>
<path d="M38.25 77.5C19.0825 86 17 69 8.5 69" stroke="black" stroke-width="6" stroke-linecap="round" stroke-linejoin="round"/>
</svg>
