<svg width="103" height="103" viewBox="0 0 103 103" fill="none" xmlns="http://www.w3.org/2000/svg">
<path d="M69 35C75.763 35 82.249 37.6866 87.0312 42.4688C91.8134 47.251 94.5 53.737 94.5 60.5V90.25H77.5V60.5C77.5 58.2457 76.6045 56.0837 75.0104 54.4896C73.4163 52.8955 71.2543 52 69 52C66.7457 52 64.5837 52.8955 62.9896 54.4896C61.3955 56.0837 60.5 58.2457 60.5 60.5V90.25H43.5V60.5C43.5 53.737 46.1866 47.251 50.9688 42.4688C55.751 37.6866 62.237 35 69 35Z" stroke="black" stroke-width="6" stroke-linecap="round" stroke-linejoin="round"/>
<path d="M26.5 39.25H9.5V90.25H26.5V39.25Z" stroke="black" stroke-width="6" stroke-linecap="round" stroke-linejoin="round"/>
<path d="M18 26.5C22.6944 26.5 26.5 22.6944 26.5 18C26.5 13.3056 22.6944 9.5 18 9.5C13.3056 9.5 9.5 13.3056 9.5 18C9.5 22.6944 13.3056 26.5 18 26.5Z" stroke="black" stroke-width="6" stroke-linecap="round" stroke-linejoin="round"/>
</svg>
