<svg width="103" height="103" viewBox="0 0 103 103" fill="none" xmlns="http://www.w3.org/2000/svg">
<path d="M52.4442 8.58325H50.5558C48.2794 8.58325 46.0962 9.48756 44.4865 11.0973C42.8768 12.7069 41.9725 14.8901 41.9725 17.1666V17.9391C41.971 19.4443 41.5736 20.9226 40.8204 22.2258C40.0671 23.5289 38.9844 24.6111 37.6808 25.3637L35.8354 26.4366C34.5306 27.1899 33.0504 27.5865 31.5438 27.5865C30.0371 27.5865 28.5569 27.1899 27.2521 26.4366L26.6083 26.0933C24.6387 24.9571 22.2988 24.6489 20.1022 25.2362C17.9056 25.8236 16.0317 27.2586 14.8921 29.2262L13.9479 30.857C12.8118 32.8266 12.5035 35.1665 13.0909 37.3632C13.6783 39.5598 15.1133 41.4336 17.0808 42.5733L17.7246 43.0024C19.0219 43.7514 20.1005 44.8268 20.8534 46.1217C21.6063 47.4167 22.0072 48.8862 22.0163 50.3841V52.5728C22.0223 54.0853 21.6285 55.5725 20.8749 56.8839C20.1212 58.1952 19.0344 59.2841 17.7246 60.0403L17.0808 60.4266C15.1133 61.5662 13.6783 63.4401 13.0909 65.6367C12.5035 67.8333 12.8118 70.1732 13.9479 72.1428L14.8921 73.7737C16.0317 75.7413 17.9056 77.1762 20.1022 77.7636C22.2988 78.351 24.6387 78.0428 26.6083 76.9066L27.2521 76.5633C28.5569 75.8099 30.0371 75.4133 31.5438 75.4133C33.0504 75.4133 34.5306 75.8099 35.8354 76.5633L37.6808 77.6362C38.9844 78.3888 40.0671 79.4709 40.8204 80.7741C41.5736 82.0772 41.971 83.5556 41.9725 85.0608V85.8333C41.9725 88.1097 42.8768 90.2929 44.4865 91.9026C46.0962 93.5123 48.2794 94.4166 50.5558 94.4166H52.4442C54.7206 94.4166 56.9038 93.5123 58.5135 91.9026C60.1232 90.2929 61.0275 88.1097 61.0275 85.8333V85.0608C61.0291 83.5556 61.4264 82.0772 62.1797 80.7741C62.9329 79.4709 64.0156 78.3888 65.3192 77.6362L67.1646 76.5633C68.4694 75.8099 69.9496 75.4133 71.4563 75.4133C72.9629 75.4133 74.4431 75.8099 75.7479 76.5633L76.3917 76.9066C78.3613 78.0428 80.7012 78.351 82.8978 77.7636C85.0945 77.1762 86.9683 75.7413 88.1079 73.7737L89.0521 72.0999C90.1883 70.1303 90.4965 67.7904 89.9091 65.5938C89.3217 63.3971 87.8867 61.5233 85.9192 60.3837L85.2754 60.0403C83.9656 59.2841 82.8788 58.1952 82.1251 56.8839C81.3715 55.5725 80.9778 54.0853 80.9838 52.5728V50.427C80.9778 48.9145 81.3715 47.4273 82.1251 46.116C82.8788 44.8046 83.9656 43.7157 85.2754 42.9595L85.9192 42.5733C87.8867 41.4336 89.3217 39.5598 89.9091 37.3632C90.4965 35.1665 90.1883 32.8266 89.0521 30.857L88.1079 29.2262C86.9683 27.2586 85.0945 25.8236 82.8978 25.2362C80.7012 24.6489 78.3613 24.9571 76.3917 26.0933L75.7479 26.4366C74.4431 27.1899 72.9629 27.5865 71.4563 27.5865C69.9496 27.5865 68.4694 27.1899 67.1646 26.4366L65.3192 25.3637C64.0156 24.6111 62.9329 23.5289 62.1797 22.2258C61.4264 20.9226 61.0291 19.4443 61.0275 17.9391V17.1666C61.0275 14.8901 60.1232 12.7069 58.5135 11.0973C56.9038 9.48756 54.7206 8.58325 52.4442 8.58325Z" stroke="black" stroke-width="6" stroke-linecap="round" stroke-linejoin="round"/>
<path d="M51.5 64.375C58.6107 64.375 64.375 58.6107 64.375 51.5C64.375 44.3893 58.6107 38.625 51.5 38.625C44.3893 38.625 38.625 44.3893 38.625 51.5C38.625 58.6107 44.3893 64.375 51.5 64.375Z" stroke="black" stroke-width="6" stroke-linecap="round" stroke-linejoin="round"/>
</svg>
