<svg width="2630" height="2630" viewBox="0 0 2630 2630" fill="none" xmlns="http://www.w3.org/2000/svg">
<path d="M1334.97 653.562C1280.78 653.736 1243.21 658.511 1197.81 666.352C1063.71 689.7 1039.28 738.733 1039.28 829.095V967.201H1352.92V1036.9H1027.36H875.768C783.907 1036.9 703.51 1080.18 678.036 1183.93C649.251 1303 647.961 1377.58 678.036 1501.92C700.862 1594.65 751.149 1664.18 843.045 1664.18H969.616V1486.31C969.616 1382.95 1063.22 1280.84 1170.48 1280.84H1422.65C1510.57 1280.84 1596.89 1215.95 1596.89 1128.31V829.095C1596.89 744.099 1535.6 680.535 1449.9 666.282C1452.03 666.073 1388.71 653.353 1334.97 653.562ZM1161.28 792.957C1189.9 792.957 1213.56 816.55 1213.56 845.3C1213.56 874.329 1189.9 897.504 1161.28 897.504C1132.12 897.504 1109.01 874.364 1109.01 845.3C1109.01 816.654 1132.12 792.957 1161.28 792.957Z" fill="#366994"/>
<path d="M1301.2 1977.82C1355.39 1977.64 1392.96 1972.87 1438.37 1965.03C1572.47 1941.68 1596.89 1892.65 1596.89 1802.28V1664.18H1283.26V1594.48H1608.85H1760.44C1852.3 1594.48 1932.7 1551.2 1958.17 1447.45C1986.96 1328.37 1988.25 1253.8 1958.17 1129.46C1935.31 1036.72 1885.02 967.201 1793.13 967.201H1666.56V1145.07C1666.56 1248.43 1572.95 1350.54 1465.69 1350.54H1213.52C1125.6 1350.54 1039.28 1415.43 1039.28 1503.07V1802.28C1039.28 1887.28 1100.58 1950.84 1186.27 1965.1C1184.15 1965.31 1247.47 1978.02 1301.2 1977.82ZM1474.92 1838.42C1446.31 1838.42 1422.65 1814.83 1422.65 1786.08C1422.65 1757.05 1446.31 1733.87 1474.92 1733.87C1504.09 1733.87 1527.2 1757.01 1527.2 1786.08C1527.2 1814.72 1504.06 1838.42 1474.92 1838.42Z" fill="#FFC107"/>
<circle cx="1315.15" cy="1315.4" r="1288.54" stroke="#366994" stroke-width="52"/>
</svg>
