<svg width="104" height="104" viewBox="0 0 104 104" fill="none" xmlns="http://www.w3.org/2000/svg">
<path d="M34.6666 95.3334C37.0599 95.3334 39 93.3933 39 91.0001C39 88.6068 37.0599 86.6667 34.6666 86.6667C32.2734 86.6667 30.3333 88.6068 30.3333 91.0001C30.3333 93.3933 32.2734 95.3334 34.6666 95.3334Z" stroke="black" stroke-width="6" stroke-linecap="round" stroke-linejoin="round"/>
<path d="M82.3333 95.3334C84.7266 95.3334 86.6667 93.3933 86.6667 91.0001C86.6667 88.6068 84.7266 86.6667 82.3333 86.6667C79.9401 86.6667 78 88.6068 78 91.0001C78 93.3933 79.9401 95.3334 82.3333 95.3334Z" stroke="black" stroke-width="6" stroke-linecap="round" stroke-linejoin="round"/>
<path d="M8.88336 8.8833H17.55L29.0767 62.7033C29.4995 64.6744 30.5963 66.4364 32.1781 67.686C33.76 68.9357 35.728 69.5948 37.7434 69.55H80.1234C82.0958 69.5468 84.0081 68.8709 85.5445 67.6339C87.0808 66.397 88.1493 64.6729 88.5734 62.7466L95.7234 30.55H22.1867" stroke="black" stroke-width="6" stroke-linecap="round" stroke-linejoin="round"/>
</svg>
