<svg width="103" height="103" viewBox="0 0 103 103" fill="none" xmlns="http://www.w3.org/2000/svg">
<path d="M73.25 9.5H30.75C19.0139 9.5 9.5 19.0139 9.5 30.75V73.25C9.5 84.9861 19.0139 94.5 30.75 94.5H73.25C84.9861 94.5 94.5 84.9861 94.5 73.25V30.75C94.5 19.0139 84.9861 9.5 73.25 9.5Z" stroke="black" stroke-width="6" stroke-linecap="round" stroke-linejoin="round"/>
<path d="M69 49.3226C69.5245 52.8596 68.9203 56.472 67.2734 59.6459C65.6266 62.8198 63.0208 65.3936 59.8269 67.0012C56.6329 68.6088 53.0134 69.1683 49.4831 68.6003C45.9528 68.0322 42.6915 66.3654 40.163 63.837C37.6346 61.3086 35.9678 58.0473 35.3998 54.517C34.8317 50.9867 35.3913 47.3671 36.9989 44.1731C38.6065 40.9792 41.1803 38.3735 44.3542 36.7266C47.5281 35.0797 51.1404 34.4756 54.6775 35.0001C58.2854 35.5351 61.6256 37.2163 64.2047 39.7954C66.7838 42.3744 68.465 45.7146 69 49.3226Z" stroke="black" stroke-width="6" stroke-linecap="round" stroke-linejoin="round"/>
<path d="M75.375 28.625H75.4175" stroke="black" stroke-width="6" stroke-linecap="round" stroke-linejoin="round"/>
</svg>
