<svg width="103" height="103" viewBox="0 0 103 103" fill="none" xmlns="http://www.w3.org/2000/svg">
<path d="M81.75 47.75H22.25C17.5556 47.75 13.75 51.5556 13.75 56.25V86C13.75 90.6944 17.5556 94.5 22.25 94.5H81.75C86.4444 94.5 90.25 90.6944 90.25 86V56.25C90.25 51.5556 86.4444 47.75 81.75 47.75Z" stroke="black" stroke-width="6" stroke-linecap="round" stroke-linejoin="round"/>
<path d="M30.75 47.75V30.75C30.75 25.1141 32.9888 19.7091 36.974 15.724C40.9591 11.7388 46.3641 9.5 52 9.5C57.6359 9.5 63.0409 11.7388 67.026 15.724C71.0112 19.7091 73.25 25.1141 73.25 30.75V47.75" stroke="black" stroke-width="6" stroke-linecap="round" stroke-linejoin="round"/>
</svg>
