<svg width="103" height="103" viewBox="0 0 103 103" fill="none" xmlns="http://www.w3.org/2000/svg">
<path d="M79.6182 12.03L60.8636 30.7846L54.0399 23.9609C52.4317 22.3622 50.2562 21.4649 47.9886 21.4649C45.7211 21.4649 43.5456 22.3622 41.9374 23.9609L35.1136 30.7846L73.7386 69.4096L80.5624 62.5859C82.1611 60.9777 83.0584 58.8022 83.0584 56.5346C83.0584 54.267 82.1611 52.0916 80.5624 50.4834L73.7386 43.6596L92.4932 24.905C94.2006 23.1977 95.1597 20.8821 95.1597 18.4675C95.1597 16.053 94.2006 13.7374 92.4932 12.03C90.7859 10.3227 88.4703 9.36353 86.0557 9.36353C83.6412 9.36353 81.3256 10.3227 79.6182 12.03Z" stroke="black" stroke-width="6" stroke-linecap="round" stroke-linejoin="round"/>
<path d="M39.4053 35.0764C30.822 47.9514 22.2386 50.0973 9.36365 52.2431L43.697 95.1598C52.2803 90.8681 69.447 73.7014 69.447 65.1181" stroke="black" stroke-width="6" stroke-linecap="round" stroke-linejoin="round"/>
<path d="M63.0094 75.8473L20.0928 65.1182" stroke="black" stroke-width="6" stroke-linecap="round" stroke-linejoin="round"/>
</svg>
