<svg width="2630" height="2630" viewBox="0 0 2630 2630" fill="none" xmlns="http://www.w3.org/2000/svg">
<circle cx="1314.74" cy="1315.07" r="1288.54" stroke="#E76F00" stroke-width="52"/>
<path fill-rule="evenodd" clip-rule="evenodd" d="M1450.47 536.573C1450.7 538.067 1451.09 539.422 1451.35 539.583C1451.86 539.898 1453.1 546.085 1454.22 553.881C1454.61 556.556 1455.11 559.003 1455.35 559.317C1456.1 560.319 1457.01 569.222 1457.71 582.608C1458.25 592.802 1458.25 598.284 1457.7 608.07C1456.95 621.34 1456.13 628.724 1455.29 629.757C1455 630.104 1454.4 632.808 1453.96 635.765C1453.01 642.09 1452 646.27 1450.96 648.276C1450.54 649.072 1450.2 650.257 1450.2 650.91C1450.2 651.563 1449.55 653.989 1448.76 656.303C1447.98 658.616 1447.33 661.085 1447.33 661.791C1447.33 662.496 1447.07 663.16 1446.76 663.265C1446.44 663.371 1445.66 665.002 1445.01 666.889C1444.37 668.777 1443.1 671.866 1442.19 673.754C1441.28 675.642 1440.4 677.836 1440.23 678.629C1440.07 679.422 1439.43 680.613 1438.82 681.276C1438.2 681.938 1437.38 683.535 1436.99 684.824C1436.61 686.114 1435.87 687.627 1435.35 688.186C1434.84 688.745 1433.45 691.134 1432.28 693.495C1431.1 695.855 1429.64 698.558 1429.02 699.502C1428.4 700.447 1427.62 701.863 1427.29 702.649C1426.96 703.436 1426.34 704.34 1425.93 704.657C1425.52 704.974 1424.49 706.584 1423.66 708.233C1422.82 709.882 1421.92 711.232 1421.64 711.232C1421.37 711.232 1420.85 711.949 1420.49 712.824C1420.13 713.7 1419.24 715.103 1418.52 715.942C1417.8 716.782 1416.47 718.64 1415.56 720.073C1414.66 721.504 1413.71 722.676 1413.46 722.676C1413.21 722.676 1413 723.005 1413 723.407C1413 723.809 1412.55 724.545 1412 725.041C1411.45 725.538 1409.97 727.289 1408.71 728.933C1407.45 730.576 1405.83 732.568 1405.11 733.359C1404.39 734.149 1403.37 735.48 1402.83 736.317C1402.29 737.154 1401.27 738.308 1400.56 738.882C1399.85 739.455 1399.27 740.129 1399.27 740.38C1399.27 740.631 1398.17 741.99 1396.84 743.402C1395.5 744.813 1391.19 749.37 1387.25 753.526C1376.76 764.619 1376.36 765.018 1375.93 765.019C1375.7 765.02 1375.01 765.792 1374.38 766.734C1373.75 767.677 1373.09 768.448 1372.9 768.449C1372.62 768.451 1366.87 773.668 1363.71 776.789C1363.19 777.301 1362.55 777.935 1362.28 778.198C1359.47 780.958 1355.52 784.472 1355.22 784.472C1355.02 784.472 1354.04 785.308 1353.04 786.332C1352.05 787.355 1350.31 788.964 1349.17 789.908C1348.03 790.852 1346.29 792.413 1345.29 793.378C1344.29 794.343 1343.05 795.373 1342.54 795.667C1342.03 795.961 1340.13 797.489 1338.33 799.063C1334.3 802.572 1332.84 803.801 1329.18 806.732C1327.6 807.992 1325.54 809.681 1324.6 810.486C1322.45 812.323 1318.04 815.868 1316.04 817.373C1315.2 818.002 1313.96 819.032 1313.29 819.661C1312.62 820.291 1311.42 821.246 1310.61 821.784C1308.75 823.033 1306.47 824.888 1303.91 827.243C1302.79 828.266 1301.67 829.102 1301.41 829.102C1301.15 829.102 1300.59 829.424 1300.17 829.818C1297.7 832.108 1293.41 835.396 1292.88 835.396C1292.55 835.396 1292.27 835.589 1292.27 835.826C1292.26 836.062 1290.55 837.542 1288.46 839.116C1286.36 840.689 1283.98 842.631 1283.17 843.432C1282.35 844.232 1280.7 845.49 1279.49 846.227C1278.28 846.964 1276.87 847.999 1276.34 848.527C1275.51 849.368 1271.11 852.936 1268.91 854.565C1268.48 854.879 1267.5 855.716 1266.73 856.424C1265.96 857.132 1265.14 857.715 1264.92 857.718C1264.7 857.722 1263.43 858.688 1262.1 859.864C1260.77 861.041 1258.5 862.904 1257.06 864.006C1255.61 865.107 1253.84 866.588 1253.12 867.296C1252.39 868.003 1251.64 868.583 1251.45 868.583C1251.25 868.583 1250.38 869.218 1249.51 869.995C1248.64 870.771 1246.77 872.342 1245.35 873.486C1238.27 879.203 1231.07 885.18 1229.2 886.893C1228.34 887.68 1226.59 889.225 1225.31 890.326C1224.04 891.428 1221.98 893.23 1220.74 894.331C1219.5 895.433 1217.57 897.107 1216.46 898.051C1215.34 898.995 1213.98 900.25 1213.44 900.839C1212.9 901.428 1212.11 902.201 1211.68 902.555C1210.07 903.91 1206.41 907.342 1202.92 910.778C1200.92 912.743 1198.95 914.674 1198.53 915.069C1197.81 915.753 1196.17 917.386 1194.54 919.037C1194.13 919.453 1192.19 921.444 1190.25 923.461C1188.3 925.478 1185.74 928.043 1184.56 929.16C1183.38 930.277 1182.41 931.523 1182.41 931.929C1182.41 932.335 1182.18 932.668 1181.91 932.668C1181.38 932.668 1178.8 935.656 1168.31 948.403C1166.24 950.92 1163.87 954.01 1163.04 955.269C1162.21 956.528 1161.09 958.043 1160.55 958.636C1160.02 959.23 1159.17 960.584 1158.67 961.646C1158.16 962.707 1157.27 964.024 1156.69 964.572C1156.11 965.12 1155.08 966.645 1154.4 967.961C1153.71 969.277 1152.79 970.661 1152.33 971.035C1151.88 971.41 1151.51 971.979 1151.51 972.298C1151.51 972.618 1150.8 974.068 1149.93 975.518C1149.06 976.969 1147.66 979.701 1146.82 981.59C1145.98 983.478 1144.65 986.447 1143.87 988.188C1143.08 989.929 1142.28 992.118 1142.08 993.052C1141.19 997.232 1140.46 999.613 1140.06 999.613C1139.82 999.613 1139.47 1000.22 1139.29 1000.95C1138.6 1003.67 1136.64 1018.59 1136.64 1021.04C1136.64 1022.44 1136.38 1023.74 1136.06 1023.93C1135.37 1024.36 1135.29 1033.18 1135.98 1033.6C1136.24 1033.77 1136.62 1036.42 1136.8 1039.5C1137.28 1047.22 1139.07 1059.09 1139.99 1060.55C1140.71 1061.71 1141.77 1065.17 1141.78 1066.41C1141.79 1068.07 1144.09 1074.8 1144.73 1075.05C1145 1075.15 1145.22 1075.72 1145.22 1076.31C1145.22 1078.17 1147.69 1084.01 1153.32 1095.45C1157.65 1104.28 1160.52 1109.6 1161.15 1110.01C1161.43 1110.18 1161.83 1110.88 1162.04 1111.56C1162.25 1112.23 1163.83 1114.93 1165.55 1117.56C1167.27 1120.19 1168.68 1122.64 1168.68 1123C1168.68 1123.36 1169.05 1123.8 1169.51 1123.97C1169.97 1124.15 1170.84 1125.27 1171.45 1126.47C1172.06 1127.66 1173.1 1129.13 1173.77 1129.73C1174.43 1130.33 1174.97 1131.15 1174.97 1131.55C1174.97 1131.95 1175.62 1133.04 1176.41 1133.98C1177.93 1135.78 1180.92 1139.87 1183.19 1143.23C1183.94 1144.33 1185.48 1146.26 1186.61 1147.52C1187.75 1148.78 1188.68 1150.13 1188.69 1150.53C1188.7 1150.92 1188.94 1151.24 1189.23 1151.24C1189.52 1151.24 1190.53 1152.34 1191.49 1153.67C1193.29 1156.2 1195.6 1159.06 1197.57 1161.22C1198.2 1161.91 1199.43 1163.41 1200.31 1164.56C1201.18 1165.71 1202.66 1167.49 1203.6 1168.51C1204.53 1169.54 1205.3 1170.56 1205.3 1170.79C1205.3 1171.01 1205.81 1171.36 1206.44 1171.55C1207.07 1171.75 1207.59 1172.26 1207.59 1172.68C1207.59 1173.1 1208.49 1174.23 1209.59 1175.2C1210.69 1176.16 1211.59 1177.12 1211.59 1177.33C1211.59 1177.54 1214.09 1180.44 1217.15 1183.78C1220.2 1187.13 1223.35 1190.59 1224.16 1191.47C1228.31 1196.06 1264.76 1232.49 1265.19 1232.49C1265.47 1232.49 1266.16 1233.27 1266.72 1234.21C1267.28 1235.15 1268.04 1235.93 1268.41 1235.93C1268.79 1235.93 1269.61 1236.7 1270.24 1237.64C1270.87 1238.58 1271.55 1239.36 1271.76 1239.36C1271.96 1239.36 1274.53 1241.63 1277.48 1244.41C1280.42 1247.19 1285.15 1251.6 1287.98 1254.22C1290.81 1256.84 1294.96 1260.68 1297.2 1262.76C1305.01 1270.01 1309.16 1273.7 1310.92 1274.94C1311.89 1275.63 1312.92 1276.72 1313.21 1277.37C1313.74 1278.56 1316.57 1279.91 1317.21 1279.27C1317.67 1278.81 1315.79 1273.12 1315.18 1273.12C1314.93 1273.12 1314.13 1271.64 1313.42 1269.83C1312.7 1268.02 1311.64 1266.01 1311.06 1265.36C1310.48 1264.71 1310.01 1263.78 1310.01 1263.3C1310.01 1262.81 1309.24 1261.35 1308.29 1260.05C1307.35 1258.75 1306.58 1257.45 1306.58 1257.17C1306.58 1256.56 1303.65 1251.2 1303.1 1250.8C1302.88 1250.65 1301.89 1249 1300.89 1247.15C1299.89 1245.3 1298.67 1243.39 1298.18 1242.9C1297.69 1242.4 1297.03 1241.28 1296.72 1240.39C1296.42 1239.51 1295.93 1238.79 1295.65 1238.79C1295.36 1238.79 1295.13 1238.4 1295.13 1237.93C1295.13 1237.46 1294.94 1237.07 1294.7 1237.07C1294.47 1237.07 1293.55 1235.78 1292.67 1234.21C1291.78 1232.64 1290.82 1231.35 1290.52 1231.35C1290.22 1231.35 1289.98 1231.09 1289.98 1230.78C1289.98 1230.46 1288.17 1227.57 1285.96 1224.34C1283.74 1221.11 1280.25 1215.96 1278.19 1212.9C1276.14 1209.83 1274.22 1207.32 1273.92 1207.32C1273.63 1207.32 1273.39 1206.98 1273.39 1206.56C1273.39 1205.84 1269.93 1200.73 1268 1198.59C1267.5 1198.04 1267.09 1197.35 1267.09 1197.05C1267.09 1196.75 1266.42 1195.78 1265.61 1194.9C1264.79 1194.02 1263.62 1192.33 1263.02 1191.15C1262.42 1189.97 1261.7 1189.01 1261.43 1189.01C1261.15 1189.01 1260.53 1188.17 1260.05 1187.15C1259.56 1186.12 1258.67 1184.77 1258.08 1184.13C1257.49 1183.5 1256.29 1181.76 1255.41 1180.27C1254.54 1178.78 1253.59 1177.56 1253.31 1177.56C1253.02 1177.56 1252.79 1177.26 1252.79 1176.88C1252.79 1176.3 1250.26 1172.17 1249.36 1171.27C1248.31 1170.23 1246.5 1167.16 1246.5 1166.43C1246.5 1165.95 1245.98 1165.24 1245.35 1164.84C1244.72 1164.45 1244.21 1163.92 1244.21 1163.67C1244.21 1163.41 1243.25 1161.74 1242.08 1159.94C1240.91 1158.15 1239.54 1155.78 1239.03 1154.68C1238.51 1153.57 1237.67 1152.32 1237.15 1151.89C1236.62 1151.46 1236.2 1150.85 1236.2 1150.54C1236.2 1150.24 1234.82 1147.63 1233.14 1144.75C1231.45 1141.87 1229.78 1138.64 1229.42 1137.57C1229.06 1136.51 1228.42 1135.35 1227.99 1135C1227.57 1134.65 1226.79 1133.17 1226.25 1131.7C1225.71 1130.24 1224.77 1128.46 1224.16 1127.75C1223.54 1127.04 1223.04 1125.99 1223.04 1125.42C1223.04 1124.45 1220.83 1119.26 1220.15 1118.63C1219.98 1118.47 1219.56 1117.44 1219.21 1116.34C1218.38 1113.68 1216.72 1109.03 1215.86 1106.9C1214.8 1104.3 1213.51 1099.84 1212.76 1096.18C1212.39 1094.38 1211.87 1092.77 1211.61 1092.6C1210.83 1092.12 1208.83 1078.54 1208.33 1070.42C1208.14 1067.35 1207.77 1064.84 1207.5 1064.84C1207.23 1064.84 1207.02 1062.91 1207.02 1060.55C1207.02 1058.07 1207.26 1056.26 1207.59 1056.26C1207.9 1056.26 1208.16 1055.03 1208.16 1053.53C1208.16 1050.64 1210.16 1034.09 1210.81 1031.66C1211.02 1030.87 1211.37 1029.97 1211.6 1029.65C1211.83 1029.34 1212.34 1027.66 1212.74 1025.93C1213.71 1021.67 1215.57 1015.83 1216.52 1013.99C1216.95 1013.17 1217.31 1012.05 1217.31 1011.52C1217.31 1010.99 1217.55 1010.41 1217.83 1010.23C1218.12 1010.05 1218.68 1008.62 1219.09 1007.05C1219.49 1005.48 1220.02 1004.19 1220.26 1004.19C1220.76 1004.19 1223.04 999.262 1223.04 998.18C1223.04 997.787 1223.44 997.128 1223.94 996.718C1224.43 996.306 1225.51 994.472 1226.32 992.642C1227.14 990.811 1227.99 989.314 1228.21 989.314C1228.44 989.314 1228.96 988.478 1229.38 987.454C1229.8 986.431 1231.5 983.496 1233.17 980.93C1234.83 978.364 1236.2 975.982 1236.2 975.637C1236.2 975.292 1236.43 975.009 1236.72 975.009C1237.01 975.009 1237.83 974.044 1238.55 972.864C1239.26 971.684 1240.7 969.706 1241.74 968.469C1242.78 967.233 1243.64 965.98 1243.64 965.686C1243.64 965.391 1244.3 964.472 1245.11 963.643C1246.39 962.338 1257.03 949.651 1259.75 946.182C1260.27 945.515 1263.56 942.04 1267.05 938.458C1270.53 934.876 1273.39 931.764 1273.39 931.541C1273.39 931.317 1274.04 930.839 1274.83 930.478C1275.62 930.116 1276.52 929.174 1276.82 928.383C1277.12 927.593 1277.7 926.946 1278.1 926.946C1278.51 926.946 1280 925.75 1281.41 924.288C1283.66 921.96 1288.94 917.161 1296.56 910.524C1297.82 909.428 1299.63 907.847 1300.58 907.01C1301.54 906.173 1303.7 904.33 1305.4 902.914C1307.1 901.498 1309.05 899.76 1309.74 899.052C1310.43 898.344 1311.2 897.765 1311.44 897.765C1311.84 897.765 1318.64 892.421 1320.91 890.326C1323.18 888.221 1327.41 884.847 1328.94 883.919C1329.86 883.361 1330.61 882.643 1330.61 882.324C1330.61 882.005 1330.93 881.74 1331.32 881.735C1331.72 881.731 1333.12 880.765 1334.45 879.59C1335.77 878.414 1338.05 876.422 1339.51 875.163C1340.97 873.904 1343.36 871.755 1344.83 870.388C1346.29 869.02 1348.19 867.533 1349.06 867.083C1349.93 866.633 1350.63 866.055 1350.63 865.798C1350.63 865.54 1352.24 863.988 1354.21 862.348C1360.1 857.434 1371.99 846.305 1384.68 833.815C1391.42 827.182 1397.55 820.606 1397.55 820.014C1397.55 819.662 1397.9 819.375 1398.33 819.375C1398.76 819.375 1399.83 818.345 1400.7 817.086C1401.57 815.828 1402.48 814.798 1402.71 814.798C1403.09 814.798 1409.1 807.937 1415 800.768C1416.26 799.238 1417.81 797.442 1418.44 796.774C1419.07 796.107 1420.3 794.621 1421.17 793.471C1422.04 792.321 1423.52 790.541 1424.46 789.515C1425.4 788.489 1426.16 787.313 1426.16 786.901C1426.16 786.489 1426.56 786.001 1427.04 785.815C1427.53 785.629 1428.28 784.801 1428.71 783.974C1429.14 783.146 1430 781.943 1430.6 781.3C1432.14 779.67 1435.56 774.952 1437.43 771.884C1438.29 770.468 1439.45 768.973 1440.01 768.561C1440.58 768.15 1441.04 767.313 1441.04 766.702C1441.04 766.09 1441.26 765.59 1441.53 765.59C1441.81 765.59 1443.16 763.758 1444.54 761.519C1445.92 759.28 1447.57 756.77 1448.21 755.94C1448.85 755.111 1449.88 753.402 1450.5 752.143C1451.12 750.885 1451.87 749.679 1452.17 749.463C1452.84 748.98 1455.87 743.638 1458.2 738.84C1459.15 736.873 1460.19 735.264 1460.5 735.264C1460.81 735.264 1461.07 734.991 1461.07 734.656C1461.07 733.943 1463.95 727.672 1464.47 727.253C1464.99 726.841 1467.93 720.08 1467.93 719.314C1467.93 718.96 1468.18 718.671 1468.49 718.671C1468.8 718.671 1469.22 717.962 1469.43 717.097C1469.64 716.232 1469.99 715.266 1470.22 714.951C1470.45 714.637 1471.09 712.899 1471.65 711.089C1472.21 709.28 1472.88 707.799 1473.14 707.799C1473.4 707.799 1473.91 706.705 1474.28 705.367C1475.51 700.967 1476.41 698.383 1477.32 696.642C1477.82 695.697 1478.23 694.539 1478.24 694.067C1478.25 693.112 1480.24 686.411 1481.05 684.626C1481.33 683.996 1481.85 682.065 1482.2 680.334C1482.54 678.603 1483.2 675.514 1483.66 673.468C1484.12 671.423 1484.51 668.676 1484.51 667.365C1484.52 666.054 1484.75 664.895 1485.03 664.79C1485.31 664.685 1486.01 661.509 1486.6 657.733C1488.1 648.03 1488.13 620.039 1486.65 610.814C1486.09 607.352 1485.39 604.434 1485.08 604.329C1484.78 604.224 1484.53 602.973 1484.53 601.547C1484.53 598.79 1482.01 587.744 1480.83 585.352C1480.45 584.565 1479.68 582.376 1479.14 580.488C1478.59 578.6 1477.53 575.768 1476.78 574.194C1476.03 572.621 1475 570.076 1474.49 568.539C1473.98 567.003 1473.06 565.216 1472.46 564.569C1471.86 563.922 1471.36 563.045 1471.36 562.62C1471.36 561.81 1469.18 557.237 1468.56 556.742C1468.36 556.585 1467.58 555.23 1466.83 553.73C1466.07 552.231 1465.11 550.719 1464.69 550.371C1464.27 550.021 1463.93 549.421 1463.93 549.037C1463.93 548.652 1463.41 547.871 1462.78 547.301C1462.15 546.732 1461.64 545.918 1461.64 545.492C1461.64 545.067 1460.99 544.159 1460.21 543.475C1459.42 542.791 1458.78 541.911 1458.78 541.521C1458.78 541.129 1458.06 540.081 1457.18 539.192C1456.31 538.302 1455 536.738 1454.28 535.715C1453.39 534.445 1452.51 533.855 1451.52 533.855C1450.11 533.855 1450.08 533.936 1450.47 536.573ZM1618.99 811.126C1618.2 811.563 1616.92 811.924 1616.15 811.928C1614.58 811.938 1604.78 814.531 1602.11 815.641C1601.16 816.034 1598.2 816.942 1595.53 817.659C1592.85 818.376 1589.89 819.274 1588.95 819.656C1585.82 820.917 1583.83 821.558 1580.95 822.229C1579.38 822.594 1577.95 823.129 1577.77 823.418C1577.59 823.706 1575.4 824.465 1572.9 825.103C1570.41 825.742 1567.14 826.903 1565.65 827.683C1564.16 828.464 1562.44 829.102 1561.83 829.102C1560.63 829.102 1554.22 831.394 1553.76 831.99C1553.6 832.193 1552.7 832.539 1551.76 832.76C1549.97 833.177 1545.4 834.859 1541.46 836.55C1540.2 837.089 1538.14 837.858 1536.88 838.258C1535.62 838.658 1533.3 839.59 1531.73 840.329C1530.16 841.069 1527.52 842.074 1525.87 842.562C1524.21 843.052 1522.86 843.647 1522.86 843.886C1522.86 844.126 1521.9 844.645 1520.72 845.039C1515.82 846.678 1511.99 848.279 1511.99 848.69C1511.99 848.931 1511.56 849.129 1511.05 849.129C1510.53 849.129 1508.79 849.752 1507.18 850.513C1505.58 851.276 1502.59 852.655 1500.55 853.579C1498.5 854.503 1496.18 855.551 1495.4 855.909C1494.61 856.266 1493.58 856.797 1493.11 857.088C1491.76 857.919 1488.13 859.428 1487.48 859.428C1487.16 859.428 1486.56 859.75 1486.14 860.143C1485.38 860.866 1484.72 861.203 1479.8 863.379C1478.31 864.042 1477.09 864.84 1477.09 865.153C1477.09 865.466 1476.71 865.722 1476.24 865.722C1475.41 865.722 1469.06 868.517 1468.5 869.127C1468.35 869.3 1466.46 870.343 1464.31 871.444C1462.16 872.545 1459.07 874.129 1457.44 874.962C1455.82 875.795 1454.16 876.774 1453.76 877.136C1453.37 877.499 1451.44 878.607 1449.47 879.601C1447.51 880.593 1445.76 881.6 1445.6 881.838C1445.43 882.076 1444.4 882.647 1443.31 883.107C1442.22 883.567 1440.8 884.414 1440.17 884.989C1439.53 885.564 1437.98 886.547 1436.73 887.173C1434.62 888.228 1427.9 892.491 1426.34 893.76C1425.96 894.066 1424.61 894.858 1423.34 895.521C1422.07 896.184 1420.45 897.342 1419.73 898.094C1419.02 898.846 1418.19 899.466 1417.89 899.471C1417.39 899.48 1411.33 903.512 1409.75 904.896C1409.37 905.222 1408.14 906.133 1407.01 906.919C1402.69 909.936 1396.67 914.633 1396.24 915.337C1395.99 915.743 1395.5 916.074 1395.16 916.074C1394.82 916.074 1393.99 916.654 1393.31 917.362C1392.64 918.07 1391.34 919.164 1390.43 919.794C1388.73 920.973 1386.92 922.503 1382.96 926.13C1381.7 927.283 1379.84 928.87 1378.81 929.657C1377.79 930.444 1376.95 931.443 1376.95 931.878C1376.95 932.312 1376.63 932.668 1376.24 932.668C1375.85 932.669 1372.18 936.115 1368.09 940.325C1358.82 949.865 1355.78 953.276 1351.78 958.662C1350.68 960.143 1349.1 962.174 1348.27 963.176C1346.05 965.861 1339.76 975.201 1339.76 975.818C1339.76 976.11 1339.38 976.772 1338.91 977.287C1337.81 978.505 1335.63 982.364 1333.4 987.025C1332.42 989.071 1331.42 990.873 1331.17 991.031C1330.93 991.188 1329.89 993.505 1328.86 996.18C1327.84 998.855 1326.85 1001.17 1326.65 1001.33C1326.04 1001.84 1323.17 1011.36 1323.17 1012.9C1323.17 1013.72 1322.92 1014.48 1322.62 1014.59C1321.81 1014.87 1320.37 1020.92 1319.66 1027.08C1319.31 1030.07 1318.8 1032.8 1318.51 1033.15C1318.23 1033.51 1317.75 1037.76 1317.44 1042.6C1316.85 1051.78 1317.55 1067.88 1318.6 1069.15C1318.9 1069.5 1319.3 1071.7 1319.49 1074.04C1319.93 1079.26 1321.93 1088.3 1322.64 1088.3C1322.93 1088.3 1323.17 1089.06 1323.17 1089.99C1323.17 1091.86 1325.54 1099.91 1327.14 1103.46C1327.7 1104.72 1328.48 1106.78 1328.87 1108.04C1329.26 1109.3 1330.31 1111.88 1331.2 1113.76C1332.1 1115.65 1333.14 1118.06 1333.52 1119.11C1333.91 1120.16 1334.51 1121.31 1334.87 1121.68C1335.22 1122.05 1335.99 1123.6 1336.57 1125.14C1337.15 1126.68 1338.11 1128.42 1338.69 1129C1339.28 1129.59 1339.77 1130.39 1339.78 1130.79C1339.8 1131.18 1340.69 1132.92 1341.77 1134.65C1342.85 1136.38 1344.52 1139.28 1345.48 1141.1C1346.45 1142.92 1347.74 1144.92 1348.36 1145.54C1348.98 1146.16 1349.49 1147.01 1349.49 1147.44C1349.49 1147.87 1350.13 1148.91 1350.92 1149.76C1351.71 1150.61 1352.35 1151.44 1352.35 1151.61C1352.35 1151.93 1357.75 1159.65 1359.71 1162.11C1360.33 1162.9 1362.47 1165.73 1364.46 1168.4C1366.46 1171.08 1368.47 1173.68 1368.94 1174.19C1369.42 1174.7 1370.83 1176.36 1372.09 1177.88C1373.35 1179.4 1374.89 1181.19 1375.52 1181.86C1376.15 1182.52 1377.41 1184.08 1378.33 1185.32C1379.24 1186.56 1380.27 1187.83 1380.62 1188.15C1381.66 1189.1 1384.39 1192.9 1384.39 1193.41C1384.39 1193.67 1384.91 1194.2 1385.54 1194.6C1386.17 1194.99 1386.68 1195.71 1386.68 1196.19C1386.68 1196.67 1387.29 1197.68 1388.04 1198.43C1388.79 1199.18 1390.14 1201.36 1391.05 1203.27C1391.95 1205.18 1392.88 1206.74 1393.12 1206.74C1393.35 1206.74 1393.55 1207.03 1393.55 1207.38C1393.55 1207.72 1394.19 1209.29 1394.98 1210.86C1395.76 1212.42 1396.41 1214.14 1396.41 1214.67C1396.41 1215.21 1396.76 1216.15 1397.18 1216.77C1398.25 1218.33 1399.61 1222.85 1400.44 1227.63C1400.82 1229.83 1401.42 1232 1401.78 1232.44C1402.65 1233.53 1402.67 1256.4 1401.8 1256.97C1401.45 1257.2 1400.85 1259.44 1400.46 1261.96C1399.75 1266.47 1399.24 1268.31 1397.78 1271.69C1396.89 1273.75 1394.86 1279.45 1393.96 1282.42C1393.6 1283.6 1393.09 1284.56 1392.83 1284.56C1392.56 1284.56 1391.69 1286.03 1390.9 1287.82C1390.11 1289.61 1388.84 1291.82 1388.07 1292.73C1387.31 1293.63 1386.68 1294.73 1386.68 1295.17C1386.68 1295.61 1385.91 1296.85 1384.96 1297.92C1384.02 1299 1383.25 1300.12 1383.25 1300.43C1383.25 1300.73 1382.6 1301.72 1381.81 1302.64C1381.01 1303.55 1379.66 1305.33 1378.8 1306.59C1377.94 1307.85 1376.6 1309.56 1375.81 1310.39C1375.02 1311.22 1373.35 1313.07 1372.09 1314.51C1369.71 1317.23 1365.45 1321.62 1362.19 1324.71C1360.98 1325.85 1360.5 1326.69 1360.85 1327.05C1361.58 1327.78 1365.07 1326.62 1366.33 1325.23C1366.85 1324.65 1368.43 1323.74 1369.83 1323.2C1371.23 1322.67 1372.38 1322.02 1372.38 1321.77C1372.38 1321.51 1373.47 1320.79 1374.81 1320.16C1376.15 1319.52 1378.01 1318.34 1378.96 1317.52C1379.9 1316.7 1381 1316.03 1381.39 1316.03C1381.79 1316.03 1382.92 1315.26 1383.91 1314.32C1384.9 1313.37 1385.91 1312.6 1386.16 1312.6C1386.72 1312.6 1395.12 1306.78 1396.69 1305.3C1397.32 1304.71 1398.8 1303.65 1399.98 1302.93C1401.17 1302.22 1402.13 1301.45 1402.13 1301.23C1402.13 1301.01 1402.84 1300.4 1403.7 1299.87C1404.57 1299.34 1406.15 1298.12 1407.21 1297.17C1408.28 1296.21 1409.32 1295.43 1409.52 1295.43C1409.72 1295.43 1411.16 1294.29 1412.73 1292.9C1414.3 1291.51 1416.71 1289.38 1418.09 1288.18C1421.66 1285.08 1436.34 1270.37 1438.88 1267.35C1444.51 1260.67 1445.76 1259.12 1446.64 1257.73C1447.15 1256.91 1448.42 1255.23 1449.46 1253.99C1450.49 1252.75 1451.34 1251.52 1451.34 1251.25C1451.34 1250.98 1451.87 1250.19 1452.51 1249.49C1453.16 1248.8 1454.25 1247.08 1454.94 1245.67C1455.64 1244.26 1456.65 1242.65 1457.2 1242.09C1457.75 1241.53 1458.2 1240.74 1458.2 1240.33C1458.2 1239.92 1458.92 1238.44 1459.79 1237.04C1462.71 1232.35 1467.93 1219.31 1467.93 1216.72C1467.93 1216 1468.14 1215.34 1468.39 1215.23C1468.64 1215.13 1469.34 1213.11 1469.94 1210.75C1470.82 1207.28 1471.07 1203.88 1471.24 1193.01C1471.42 1181.19 1471.31 1178.88 1470.28 1173.85C1469.64 1170.71 1468.85 1168.05 1468.52 1167.94C1468.2 1167.83 1467.93 1167 1467.93 1166.11C1467.93 1163.48 1462.03 1148.45 1460.52 1147.24C1460.32 1147.08 1459.41 1145.34 1458.49 1143.37C1457.57 1141.41 1456.61 1139.8 1456.36 1139.8C1456.11 1139.8 1455.34 1138.64 1454.65 1137.22C1453.96 1135.81 1453.19 1134.65 1452.94 1134.65C1452.69 1134.65 1452.48 1134.38 1452.48 1134.05C1452.48 1133.72 1451.84 1132.76 1451.05 1131.91C1450.27 1131.06 1449.62 1130.09 1449.62 1129.75C1449.62 1129.41 1448.98 1128.52 1448.19 1127.78C1447.4 1127.04 1446.76 1126.22 1446.76 1125.95C1446.76 1125.69 1445.47 1123.83 1443.9 1121.83C1442.33 1119.83 1441.03 1117.97 1441.02 1117.69C1441.01 1117.42 1440.24 1116.45 1439.31 1115.53C1438.37 1114.61 1437.61 1113.53 1437.61 1113.12C1437.61 1112.72 1437.03 1111.79 1436.32 1111.07C1435.61 1110.35 1434.29 1108.61 1433.38 1107.21C1432.46 1105.81 1431.49 1104.4 1431.22 1104.07C1430.94 1103.74 1429.94 1102.31 1428.98 1100.89C1428.03 1099.47 1426.04 1096.55 1424.56 1094.4C1423.08 1092.25 1421.4 1089.67 1420.83 1088.68C1420.25 1087.68 1419.48 1086.61 1419.11 1086.3C1418.74 1085.98 1417.99 1084.83 1417.44 1083.72C1416.4 1081.64 1415.21 1079.64 1414.72 1079.15C1414.56 1078.99 1414.15 1078.35 1413.81 1077.72C1411.97 1074.34 1410.05 1070.95 1409.34 1069.83C1408.9 1069.13 1408.36 1067.96 1408.14 1067.22C1407.92 1066.47 1407.14 1064.98 1406.4 1063.9C1405.67 1062.82 1404.63 1060.59 1404.09 1058.95C1403.55 1057.31 1402.94 1055.84 1402.73 1055.69C1402.22 1055.3 1401.25 1052.66 1400.12 1048.54C1399.6 1046.65 1398.83 1044.33 1398.41 1043.39C1395.83 1037.53 1394.83 1018.57 1396.63 1009.63C1397.14 1007.11 1397.55 1004.36 1397.55 1003.52C1397.55 1002.68 1397.8 1001.91 1398.11 1001.81C1398.42 1001.7 1399.44 999.065 1400.37 995.946C1401.31 992.827 1402.32 990.123 1402.62 989.936C1402.92 989.749 1403.68 988.26 1404.3 986.627C1404.92 984.994 1405.97 982.965 1406.64 982.118C1407.31 981.27 1407.85 980.327 1407.85 980.022C1407.85 979.717 1408.62 978.322 1409.57 976.923C1410.51 975.524 1411.29 974.247 1411.29 974.084C1411.29 973.922 1411.93 972.945 1412.72 971.913C1413.5 970.882 1414.15 969.855 1414.15 969.632C1414.15 969.408 1414.92 968.402 1415.86 967.397C1416.8 966.391 1417.58 965.238 1417.58 964.835C1417.58 964.432 1417.98 963.95 1418.46 963.764C1418.94 963.579 1419.71 962.71 1420.16 961.833C1421.17 959.885 1428.7 950.919 1429.88 950.255C1430.35 949.992 1430.74 949.515 1430.74 949.196C1430.74 948.877 1431.51 947.965 1432.46 947.171C1433.4 946.376 1434.17 945.357 1434.17 944.905C1434.17 944.453 1434.82 943.837 1435.61 943.536C1436.4 943.236 1437.34 942.341 1437.7 941.548C1438.07 940.755 1438.56 940.106 1438.8 940.106C1439.04 940.106 1441.3 938.111 1443.82 935.672C1446.34 933.233 1449 930.68 1449.73 929.999C1450.46 929.318 1451.35 928.462 1451.72 928.097C1453.32 926.52 1456.44 923.754 1457.22 923.227C1457.69 922.912 1459.71 921.282 1461.71 919.605C1463.72 917.928 1466.26 915.813 1467.36 914.905C1471.53 911.465 1473.03 910.193 1474.79 908.581C1475.79 907.667 1476.74 906.919 1476.91 906.919C1477.26 906.919 1485.34 900.715 1487.24 898.979C1487.95 898.333 1489.11 897.507 1489.82 897.144C1490.53 896.78 1491.62 895.992 1492.25 895.391C1493.69 894.02 1497.88 890.945 1500.21 889.558C1501.18 888.979 1502.62 887.929 1503.41 887.225C1504.8 885.979 1509.64 882.616 1513.36 880.313C1514.37 879.683 1515.82 878.589 1516.57 877.881C1517.31 877.173 1518.25 876.594 1518.63 876.594C1519.02 876.594 1520.07 875.882 1520.96 875.012C1521.85 874.142 1523.22 873.114 1524.01 872.728C1525.82 871.834 1527.46 870.783 1528.46 869.871C1528.89 869.478 1530.44 868.455 1531.91 867.598C1533.39 866.742 1535.08 865.596 1535.67 865.052C1536.26 864.508 1537.68 863.626 1538.82 863.094C1539.95 862.56 1541.09 861.772 1541.35 861.343C1541.6 860.913 1542.64 860.214 1543.66 859.788C1544.68 859.363 1545.88 858.649 1546.34 858.201C1546.8 857.753 1548.46 856.641 1550.03 855.73C1551.6 854.819 1553.39 853.604 1554 853.031C1554.62 852.458 1555.36 851.99 1555.65 851.99C1555.94 851.99 1557.89 850.855 1559.98 849.467C1562.06 848.079 1564.48 846.622 1565.35 846.228C1566.21 845.834 1566.92 845.319 1566.92 845.083C1566.92 844.847 1568.09 844.088 1569.51 843.397C1570.94 842.707 1572.44 841.812 1572.84 841.41C1573.24 841.008 1574.62 840.142 1575.91 839.487C1577.19 838.831 1578.59 837.955 1579.02 837.539C1579.72 836.855 1582.82 835.09 1586.23 833.443C1586.93 833.101 1587.51 832.648 1587.51 832.436C1587.52 832.224 1589 831.322 1590.81 830.433C1592.62 829.544 1594.41 828.406 1594.78 827.904C1595.16 827.402 1596.64 826.544 1598.07 825.997C1599.51 825.45 1600.68 824.796 1600.68 824.544C1600.68 824.293 1602.16 823.388 1603.97 822.533C1605.78 821.679 1607.46 820.619 1607.72 820.177C1607.97 819.736 1608.56 819.375 1609.03 819.375C1609.51 819.375 1610.84 818.731 1612 817.945C1613.16 817.158 1614.43 816.514 1614.83 816.514C1615.23 816.514 1615.56 816.284 1615.56 816.003C1615.56 815.721 1616.84 814.885 1618.4 814.143C1621.2 812.817 1622.17 811.766 1621.53 810.741C1621.13 810.086 1620.77 810.14 1618.99 811.126ZM1679.35 1269.79C1675.58 1270.45 1672.4 1271.21 1672.3 1271.48C1672.19 1271.75 1671.28 1271.97 1670.26 1271.97C1669.25 1271.97 1666.25 1272.61 1663.59 1273.39C1660.93 1274.17 1658.23 1274.82 1657.58 1274.82C1656.94 1274.83 1656.16 1275.05 1655.87 1275.32C1655.57 1275.58 1653.65 1276.4 1651.6 1277.13C1647.41 1278.62 1641.87 1281.73 1639.3 1284.03C1638.36 1284.88 1637 1285.87 1636.3 1286.23C1635.59 1286.59 1635.01 1287.22 1635.01 1287.63C1635.01 1288.04 1634.42 1288.69 1633.69 1289.08C1632.25 1289.85 1629.39 1294.58 1630 1295.19C1630.48 1295.67 1637.3 1293.66 1637.3 1293.04C1637.3 1292.78 1637.79 1292.57 1638.39 1292.57C1638.99 1292.57 1641.89 1291.95 1644.83 1291.18C1647.77 1290.42 1651.52 1289.62 1653.18 1289.41C1654.83 1289.2 1656.18 1288.84 1656.18 1288.61C1656.18 1287.61 1667.14 1286.28 1675.38 1286.27C1683.56 1286.27 1693.94 1287.57 1693.94 1288.6C1693.94 1288.82 1695.17 1289.18 1696.66 1289.39C1699.49 1289.79 1708.32 1292.57 1708.82 1293.22C1708.98 1293.42 1710.74 1294.27 1712.74 1295.11C1714.74 1295.95 1716.92 1297.15 1717.59 1297.78C1718.26 1298.4 1719.46 1299.07 1720.25 1299.27C1721.05 1299.46 1722.08 1300.04 1722.55 1300.56C1723.03 1301.08 1724.33 1302.06 1725.46 1302.74C1726.58 1303.43 1728.17 1304.57 1728.97 1305.29C1729.78 1306 1732.05 1308.01 1734.02 1309.74C1735.99 1311.47 1737.88 1313.23 1738.23 1313.65C1738.58 1314.07 1739.56 1315.23 1740.41 1316.22C1743.34 1319.65 1744.87 1321.63 1744.87 1322C1744.87 1322.21 1745.32 1322.86 1745.87 1323.46C1746.42 1324.05 1747.38 1325.52 1748.01 1326.72C1748.64 1327.92 1749.35 1329.05 1749.59 1329.23C1750.34 1329.78 1752.31 1333.95 1752.31 1334.99C1752.31 1335.53 1752.65 1336.32 1753.06 1336.73C1754.13 1337.79 1755.46 1341.81 1756.64 1347.5C1757.2 1350.18 1757.93 1352.73 1758.27 1353.17C1759.11 1354.26 1759.12 1376 1758.28 1376.56C1757.95 1376.79 1757.2 1379.54 1756.62 1382.69C1755.46 1389.01 1754.58 1392.12 1753.22 1394.71C1752.72 1395.65 1752.31 1396.8 1752.31 1397.25C1752.31 1397.71 1750.89 1400.98 1749.16 1404.51C1747.43 1408.04 1746.01 1411.18 1746.01 1411.47C1746.01 1411.77 1745.64 1412.33 1745.18 1412.71C1744.73 1413.09 1743.79 1414.56 1743.1 1415.98C1742.42 1417.4 1741.31 1419.15 1740.64 1419.88C1739.98 1420.61 1738.92 1422.18 1738.29 1423.38C1737.66 1424.57 1736.56 1426.18 1735.86 1426.95C1735.15 1427.72 1734.57 1428.7 1734.57 1429.12C1734.57 1429.55 1734.32 1429.9 1734.01 1429.9C1733.69 1429.9 1732.82 1430.86 1732.07 1432.04C1730.86 1433.95 1722.38 1444.16 1720.78 1445.63C1720.44 1445.95 1719.61 1446.8 1718.93 1447.53C1715.29 1451.44 1707.8 1458.76 1706.7 1459.49C1706 1459.95 1705.28 1460.82 1705.09 1461.42C1704.9 1462.02 1704.4 1462.51 1703.98 1462.51C1703.56 1462.51 1702.46 1463.35 1701.54 1464.37C1700.62 1465.39 1699.46 1466.49 1698.97 1466.8C1698.49 1467.12 1696.45 1468.74 1694.44 1470.41C1692.44 1472.08 1689.96 1474.14 1688.93 1474.99C1687.91 1475.84 1686.42 1477.11 1685.62 1477.81C1684.82 1478.52 1683.42 1479.48 1682.51 1479.96C1681.6 1480.43 1680.52 1481.28 1680.1 1481.84C1679.69 1482.41 1678.13 1483.58 1676.64 1484.44C1675.14 1485.31 1673.92 1486.27 1673.92 1486.57C1673.92 1486.87 1673.64 1487.11 1673.31 1487.11C1672.79 1487.11 1669.06 1489.63 1668.2 1490.57C1668.04 1490.74 1666.62 1491.7 1665.05 1492.71C1663.48 1493.72 1661.59 1495.06 1660.85 1495.69C1660.12 1496.33 1659.16 1496.84 1658.73 1496.84C1658.29 1496.84 1657.15 1497.61 1656.18 1498.56C1655.21 1499.5 1654.09 1500.28 1653.67 1500.28C1653.26 1500.28 1652.39 1500.73 1651.74 1501.28C1649.97 1502.78 1649 1503.4 1642.16 1507.42C1638.7 1509.45 1635.49 1511.43 1635.03 1511.83C1634.57 1512.23 1632.91 1513.16 1631.33 1513.89C1629.75 1514.62 1628.32 1515.43 1628.16 1515.68C1627.99 1515.94 1626.65 1516.7 1625.17 1517.37C1623.7 1518.03 1622.34 1518.82 1622.16 1519.12C1621.98 1519.42 1620.22 1520.42 1618.26 1521.34C1616.29 1522.27 1613.14 1523.96 1611.26 1525.1C1609.37 1526.23 1607.39 1527.17 1606.84 1527.17C1605.91 1527.17 1601.25 1532.43 1601.25 1533.47C1601.25 1533.74 1600.74 1534.12 1600.11 1534.32C1598.72 1534.76 1598.55 1536.89 1599.9 1536.89C1600.42 1536.89 1602.54 1536.4 1604.62 1535.8C1606.7 1535.19 1609.5 1534.53 1610.83 1534.32C1612.17 1534.11 1613.27 1533.76 1613.27 1533.55C1613.27 1533.17 1616.21 1532.32 1624.36 1530.35C1626.52 1529.82 1628.66 1529.02 1629.12 1528.57C1629.57 1528.11 1630.56 1527.74 1631.32 1527.74C1633.02 1527.74 1640.37 1525.39 1640.64 1524.76C1640.74 1524.51 1641.34 1524.31 1641.98 1524.31C1643 1524.31 1650 1522.12 1653.03 1520.85C1653.66 1520.59 1655.43 1519.84 1656.97 1519.19C1658.5 1518.54 1660.18 1518.01 1660.7 1518.01C1661.21 1518.01 1662.58 1517.51 1663.73 1516.89C1664.89 1516.27 1667.91 1515.08 1670.45 1514.24C1672.99 1513.4 1675.06 1512.51 1675.06 1512.26C1675.06 1512.01 1675.9 1511.63 1676.92 1511.42C1677.94 1511.2 1680.33 1510.32 1682.21 1509.44C1689.81 1505.94 1692.4 1504.85 1693.16 1504.85C1693.59 1504.85 1693.94 1504.65 1693.94 1504.4C1693.94 1504.15 1695.17 1503.44 1696.66 1502.82C1698.15 1502.21 1700.15 1501.27 1701.1 1500.74C1702.73 1499.81 1704.25 1499.08 1708.82 1497.01C1709.92 1496.51 1710.95 1495.92 1711.11 1495.69C1711.27 1495.46 1712.94 1494.56 1714.83 1493.68C1716.72 1492.79 1718.39 1491.9 1718.55 1491.69C1718.71 1491.47 1720.25 1490.6 1721.98 1489.73C1723.7 1488.87 1725.25 1487.99 1725.41 1487.77C1725.57 1487.56 1726.34 1487.06 1727.13 1486.68C1728.62 1485.95 1728.94 1485.76 1733.81 1482.69C1735.44 1481.66 1737.24 1480.64 1737.81 1480.42C1738.39 1480.2 1739.33 1479.43 1739.9 1478.71C1740.48 1477.98 1741.4 1477.39 1741.95 1477.39C1742.51 1477.39 1743.71 1476.62 1744.63 1475.69C1745.55 1474.75 1746.57 1473.98 1746.91 1473.97C1747.24 1473.96 1748.02 1473.5 1748.63 1472.95C1749.24 1472.4 1751.03 1470.99 1752.6 1469.82C1754.17 1468.65 1755.83 1467.36 1756.29 1466.96C1756.76 1466.57 1757.92 1465.71 1758.88 1465.06C1759.84 1464.4 1761.32 1463.24 1762.18 1462.48C1763.03 1461.71 1764.79 1460.18 1766.09 1459.08C1769.18 1456.44 1770.62 1454.96 1770.62 1454.39C1770.62 1454.14 1770.97 1453.93 1771.39 1453.93C1771.82 1453.93 1774.65 1451.29 1777.69 1448.06C1780.72 1444.84 1783.98 1441.43 1784.92 1440.48C1785.87 1439.54 1786.64 1438.54 1786.64 1438.27C1786.64 1438 1787.29 1437.1 1788.1 1436.27C1790.59 1433.68 1793.5 1430.07 1793.51 1429.54C1793.51 1429.26 1794.22 1428.26 1795.08 1427.3C1796.91 1425.28 1798.46 1422.82 1799.31 1420.6C1799.64 1419.73 1800.14 1419.02 1800.41 1419.02C1800.69 1419.02 1801.61 1417.54 1802.46 1415.73C1803.32 1413.93 1804.32 1412.14 1804.69 1411.76C1805.07 1411.39 1805.97 1409.39 1806.7 1407.33C1807.42 1405.26 1808.22 1403.58 1808.46 1403.58C1808.71 1403.58 1809.2 1402.48 1809.56 1401.14C1810.23 1398.65 1812.15 1392.75 1812.94 1390.7C1814.09 1387.76 1815.99 1375.11 1816.25 1368.65C1816.65 1359.04 1814.84 1344.3 1812.65 1339.21C1812.25 1338.26 1811.49 1336.07 1810.97 1334.34C1810 1331.15 1809.07 1328.91 1807.63 1326.33C1807.19 1325.54 1806.35 1323.87 1805.75 1322.61C1805.16 1321.35 1804.52 1320.19 1804.33 1320.04C1804.14 1319.88 1803.28 1318.53 1802.41 1317.03C1801.54 1315.54 1800.6 1314.32 1800.32 1314.32C1800.03 1314.32 1799.8 1313.97 1799.8 1313.54C1799.8 1313.12 1798.13 1310.81 1796.08 1308.41C1794.03 1306.02 1792.36 1303.79 1792.36 1303.46C1792.36 1303.14 1792.15 1302.87 1791.89 1302.87C1791.63 1302.87 1790.01 1301.52 1788.3 1299.87C1786.58 1298.21 1784.07 1295.96 1782.72 1294.86C1781.37 1293.76 1779.45 1292.13 1778.45 1291.25C1777.44 1290.36 1775.92 1289.37 1775.05 1289.04C1774.19 1288.72 1773.48 1288.21 1773.48 1287.91C1773.48 1287.61 1771.8 1286.58 1769.76 1285.62C1767.71 1284.66 1766.04 1283.67 1766.04 1283.41C1766.04 1283.15 1764.86 1282.49 1763.42 1281.94C1761.98 1281.39 1760.25 1280.51 1759.56 1279.97C1758.88 1279.44 1757.29 1278.68 1756.03 1278.28C1754.77 1277.88 1752.45 1276.98 1750.88 1276.28C1747.31 1274.68 1738.16 1271.96 1736.42 1271.97C1735.71 1271.97 1734.68 1271.72 1734.13 1271.41C1733.59 1271.1 1731.21 1270.42 1728.85 1269.9C1725.43 1269.14 1720.66 1268.91 1705.39 1268.77C1688.01 1268.61 1685.58 1268.71 1679.35 1269.79ZM1132.06 1281.5C1124.69 1281.69 1110.74 1282.9 1110.03 1283.42C1109.72 1283.65 1106.5 1284.15 1102.88 1284.53C1093.17 1285.55 1080.56 1287.5 1080.56 1287.98C1080.56 1288.21 1078.81 1288.55 1076.67 1288.73C1073.04 1289.03 1065.42 1290.64 1051.65 1294.02C1048.49 1294.8 1045.46 1295.43 1044.91 1295.43C1044.37 1295.43 1043.48 1295.68 1042.93 1295.97C1041.52 1296.75 1036.79 1298.11 1032.79 1298.9C1030.9 1299.27 1029.22 1299.75 1029.07 1299.96C1028.79 1300.33 1025.17 1301.42 1019.2 1302.91C1017.7 1303.29 1016.48 1303.76 1016.48 1303.97C1016.48 1304.17 1015.26 1304.66 1013.76 1305.05C1009.49 1306.16 1003.06 1308.23 1002.75 1308.58C1002.59 1308.75 1001.43 1309.18 1000.17 1309.53C997.341 1310.31 992.902 1311.9 989.871 1313.22C988.613 1313.77 986.166 1314.69 984.436 1315.27C982.705 1315.85 981.159 1316.49 981.001 1316.69C980.679 1317.12 977.368 1318.39 973.737 1319.48C972.416 1319.87 971.21 1320.53 971.058 1320.92C970.905 1321.32 969.926 1321.83 968.882 1322.05C966.474 1322.56 961.323 1324.71 961.072 1325.3C960.966 1325.55 960.525 1325.76 960.091 1325.76C959.656 1325.76 956.377 1327.17 952.805 1328.91C949.232 1330.64 946.023 1332.05 945.672 1332.05C945.323 1332.05 944.677 1332.41 944.239 1332.85C943.8 1333.29 942.249 1334.19 940.792 1334.85C939.335 1335.52 937.938 1336.38 937.687 1336.78C937.436 1337.17 936.31 1337.91 935.186 1338.43C932.756 1339.55 928.594 1343.07 925.6 1346.53C922.679 1349.9 921.626 1354.15 922.651 1358.42C923.224 1360.81 923.967 1362.04 926.061 1364.07C930.228 1368.11 932.322 1369.82 933.127 1369.82C933.535 1369.82 934.38 1370.29 935.006 1370.88C935.632 1371.46 937.676 1372.51 939.548 1373.2C941.42 1373.9 943.467 1374.8 944.097 1375.21C944.726 1375.61 947.945 1376.76 951.249 1377.77C954.553 1378.77 957.772 1379.82 958.401 1380.1C960.478 1381.02 971.525 1383.56 973.421 1383.55C974.444 1383.55 975.281 1383.77 975.281 1384.03C975.281 1384.54 985.415 1386.69 990.73 1387.31C992.461 1387.52 994.134 1387.89 994.449 1388.14C995.066 1388.63 1003.39 1389.91 1013.04 1391.02C1016.35 1391.39 1019.31 1391.9 1019.62 1392.14C1020.22 1392.6 1023.65 1392.98 1045.95 1395.03C1053.18 1395.69 1059.62 1396.45 1060.25 1396.71C1060.88 1396.98 1065 1397.34 1069.41 1397.52C1073.81 1397.7 1082.57 1398.24 1088.86 1398.72C1095.15 1399.2 1107.64 1399.76 1116.61 1399.95C1127.54 1400.19 1133.05 1400.52 1133.33 1400.94C1133.91 1401.84 1259.53 1401.84 1260.11 1400.94C1260.38 1400.51 1266.22 1400.19 1278.25 1399.96C1288.01 1399.78 1303.71 1399.1 1313.16 1398.46C1322.6 1397.82 1332.83 1397.3 1335.9 1397.29C1338.97 1397.29 1341.48 1397.08 1341.48 1396.83C1341.48 1396.58 1345.53 1396.06 1350.49 1395.67C1355.45 1395.27 1362.46 1394.71 1366.08 1394.4C1369.7 1394.1 1376.59 1393.55 1381.39 1393.19C1386.19 1392.83 1390.11 1392.35 1390.11 1392.13C1390.11 1391.91 1393.66 1391.42 1397.98 1391.05C1411.01 1389.91 1422.42 1388.53 1422.74 1388.07C1422.9 1387.82 1425.09 1387.47 1427.6 1387.28C1434.9 1386.72 1449.86 1384.61 1450.45 1384.06C1450.75 1383.78 1451.91 1383.55 1453.03 1383.56C1455.25 1383.57 1473.3 1380.89 1476.51 1380.07C1478.9 1379.47 1489.28 1377.61 1495.68 1376.64C1498.2 1376.26 1500.52 1375.76 1500.83 1375.53C1501.57 1375 1505.93 1374.08 1511.7 1373.24C1514.22 1372.87 1517.05 1372.22 1518 1371.79C1518.94 1371.37 1521.39 1370.74 1523.43 1370.4C1528.28 1369.59 1534.44 1368.1 1535.16 1367.56C1535.48 1367.33 1537.61 1366.81 1539.91 1366.42C1542.71 1365.94 1544.61 1365.25 1545.71 1364.33C1546.61 1363.57 1547.47 1362.95 1547.62 1362.95C1548.05 1362.95 1554.51 1359 1554.87 1358.52C1555.05 1358.28 1556.54 1357.44 1558.18 1356.66C1559.83 1355.87 1561.18 1355.04 1561.19 1354.8C1561.19 1354.57 1562.81 1353.6 1564.77 1352.65C1566.74 1351.69 1569.9 1350.05 1571.78 1348.99C1576.45 1346.38 1581.81 1343.72 1583.37 1343.24C1584.08 1343.02 1584.66 1342.66 1584.66 1342.42C1584.66 1342.03 1586.4 1341.2 1590.81 1339.5C1591.83 1339.1 1592.67 1338.6 1592.67 1338.38C1592.67 1338.16 1594.34 1337.39 1596.39 1336.67C1598.44 1335.95 1600.69 1334.9 1601.4 1334.35C1602.1 1333.8 1603.52 1333.16 1604.54 1332.94C1605.66 1332.7 1606.4 1332.18 1606.4 1331.65C1606.4 1330.93 1605.89 1330.82 1603.68 1331.08C1602.19 1331.26 1598.39 1331.71 1595.24 1332.08C1592.1 1332.45 1589.39 1332.95 1589.23 1333.19C1588.97 1333.59 1582.48 1334.61 1570.64 1336.11C1567.81 1336.47 1565.23 1336.96 1564.92 1337.2C1564.6 1337.44 1562.16 1337.92 1559.48 1338.26C1542.86 1340.4 1535.71 1341.48 1535.55 1341.89C1535.44 1342.14 1534.15 1342.36 1532.68 1342.36C1531.22 1342.36 1525.51 1343.01 1520.01 1343.79C1514.5 1344.57 1509.03 1345.21 1507.84 1345.21C1506.65 1345.21 1505.23 1345.45 1504.69 1345.73C1503.56 1346.32 1486.99 1348.42 1478.95 1348.99C1476.03 1349.2 1473.65 1349.54 1473.65 1349.76C1473.65 1350.18 1460.64 1351.65 1447.48 1352.72C1442.99 1353.09 1439.32 1353.57 1439.32 1353.8C1439.32 1354.17 1430.86 1355 1419.01 1355.79C1407.32 1356.57 1392.58 1357.97 1391.55 1358.39C1390.92 1358.65 1386.92 1359 1382.68 1359.18C1367.23 1359.83 1337.74 1361.91 1336.77 1362.42C1336.22 1362.71 1332.45 1362.95 1328.39 1362.95C1324.33 1362.95 1316.54 1363.21 1311.07 1363.52C1287.19 1364.89 1258.69 1365.81 1240.2 1365.81C1227.51 1365.81 1220.11 1366.02 1219.89 1366.38C1219.66 1366.75 1209.98 1366.96 1192.71 1366.96C1175.44 1366.96 1165.76 1366.75 1165.53 1366.38C1165.31 1366.02 1159.18 1365.81 1149.05 1365.81C1133.84 1365.8 1111.35 1364.79 1098.59 1363.54C1095.44 1363.23 1090.99 1362.97 1088.71 1362.97C1086.42 1362.96 1084.11 1362.72 1083.56 1362.44C1082.67 1361.99 1069.74 1360.11 1060.82 1359.15C1058.93 1358.94 1057.26 1358.59 1057.1 1358.37C1056.95 1358.14 1053.98 1357.4 1050.52 1356.72C1043.02 1355.25 1039.18 1354.3 1038.79 1353.81C1038.64 1353.61 1037.35 1353.13 1035.93 1352.74C1033.5 1352.06 1029.69 1350.42 1029.07 1349.79C1028.91 1349.62 1027.68 1348.78 1026.33 1347.9C1022 1345.1 1020.65 1341.43 1022.51 1337.52C1023.32 1335.8 1028.76 1329.76 1029.49 1329.76C1029.67 1329.76 1030.66 1329.12 1031.69 1328.33C1032.72 1327.55 1033.82 1326.9 1034.14 1326.9C1034.45 1326.9 1035.07 1326.54 1035.52 1326.09C1035.97 1325.64 1037.98 1324.4 1040 1323.34C1042.01 1322.28 1044.17 1321.13 1044.8 1320.78C1045.43 1320.44 1047.1 1319.68 1048.52 1319.1C1049.94 1318.53 1051.44 1317.73 1051.85 1317.33C1052.27 1316.93 1052.94 1316.6 1053.35 1316.6C1054.16 1316.6 1060.08 1314.27 1060.54 1313.77C1060.69 1313.6 1062.24 1312.99 1063.97 1312.42C1065.7 1311.86 1068.15 1310.91 1069.41 1310.32C1070.66 1309.73 1073.11 1308.81 1074.84 1308.27C1076.57 1307.74 1078.25 1307.11 1078.56 1306.87C1078.87 1306.64 1080.35 1306.27 1081.85 1306.06C1083.35 1305.84 1084.57 1305.45 1084.57 1305.19C1084.57 1304.66 1089.69 1302.87 1091.2 1302.87C1091.74 1302.87 1093.82 1302.1 1095.81 1301.15C1097.81 1300.21 1100.04 1299.44 1100.78 1299.44C1102.24 1299.44 1106.85 1297.97 1109.14 1296.78C1109.94 1296.36 1111.07 1296.01 1111.65 1296.01C1113.22 1296 1121.44 1293.55 1121.66 1293.03C1121.77 1292.78 1122.41 1292.57 1123.1 1292.57C1123.78 1292.57 1126.14 1292.06 1128.34 1291.42C1130.54 1290.79 1133.95 1289.99 1135.92 1289.65C1137.89 1289.3 1139.5 1288.84 1139.5 1288.62C1139.5 1288.19 1144.93 1286.75 1150.66 1285.66C1152.54 1285.3 1154.37 1284.78 1154.71 1284.51C1155.05 1284.23 1156.84 1283.66 1158.68 1283.24C1160.52 1282.83 1162.13 1282.18 1162.25 1281.81C1162.47 1281.16 1150.53 1281.04 1132.06 1281.5ZM1100.59 1436.04C1099.8 1436.19 1099.03 1436.49 1098.87 1436.72C1098.72 1436.95 1096.27 1437.86 1093.44 1438.75C1090.6 1439.64 1087.77 1440.68 1087.14 1441.06C1086.51 1441.43 1084.32 1442.33 1082.28 1443.04C1080.23 1443.75 1077.79 1444.79 1076.84 1445.34C1075.9 1445.89 1074.4 1446.51 1073.51 1446.72C1072.61 1446.94 1070.94 1447.7 1069.79 1448.43C1068.63 1449.16 1067.04 1449.96 1066.26 1450.2C1064.23 1450.84 1052.56 1457.16 1051.95 1457.96C1051.8 1458.17 1050.56 1459.03 1049.22 1459.87C1047.87 1460.71 1046.27 1461.85 1045.68 1462.39C1045.08 1462.93 1043.15 1464.52 1041.41 1465.92C1039.66 1467.32 1038.08 1468.91 1037.91 1469.44C1037.74 1469.98 1037.02 1470.8 1036.31 1471.27C1035.6 1471.73 1034.54 1473.17 1033.96 1474.46C1033.37 1475.76 1032.7 1476.82 1032.46 1476.82C1030.66 1476.82 1029.83 1490.32 1031.41 1493.69C1032.91 1496.89 1035.63 1500.48 1039.05 1503.82C1040.93 1505.65 1042.63 1507.14 1042.84 1507.14C1043.04 1507.14 1044.34 1508.04 1045.72 1509.14C1047.1 1510.24 1048.55 1511.14 1048.93 1511.14C1049.31 1511.14 1050.08 1511.63 1050.64 1512.23C1051.21 1512.83 1053.31 1514.01 1055.33 1514.85C1057.34 1515.69 1059.35 1516.75 1059.8 1517.2C1060.25 1517.65 1060.92 1518.01 1061.28 1518.01C1062.26 1518.01 1068.23 1520.52 1068.45 1521.02C1068.56 1521.25 1069.04 1521.45 1069.53 1521.45C1070.01 1521.45 1072.2 1522.09 1074.38 1522.88C1076.56 1523.66 1078.82 1524.31 1079.4 1524.31C1079.99 1524.31 1080.55 1524.52 1080.66 1524.79C1080.89 1525.38 1088.57 1527.74 1090.27 1527.74C1090.94 1527.74 1092.58 1528.23 1093.9 1528.82C1095.22 1529.42 1097.71 1530.18 1099.44 1530.52C1108.69 1532.34 1111.8 1533.06 1112.33 1533.49C1112.66 1533.75 1114.33 1534.13 1116.05 1534.33C1121.15 1534.93 1131.69 1536.94 1132.77 1537.51C1133.31 1537.8 1134.67 1538.04 1135.78 1538.04C1136.89 1538.04 1140.17 1538.42 1143.08 1538.89C1161.6 1541.86 1193.19 1544.91 1205.58 1544.91C1208.84 1544.91 1211.58 1545.15 1211.69 1545.45C1211.8 1545.76 1222.11 1546.29 1236.34 1546.69C1255.75 1547.25 1266.21 1547.25 1286.97 1546.69C1301.36 1546.3 1313.27 1545.77 1313.43 1545.53C1313.59 1545.28 1319.01 1544.91 1325.46 1544.71C1336.54 1544.36 1357.66 1542.77 1368.37 1541.48C1384.75 1539.51 1398.77 1538.03 1401.08 1538.03C1402.55 1538.04 1403.84 1537.84 1403.94 1537.59C1404.1 1537.21 1416.76 1535.36 1427.02 1534.22C1428.59 1534.05 1430.14 1533.71 1430.45 1533.48C1430.77 1533.24 1433.86 1532.64 1437.32 1532.13C1440.78 1531.62 1446.64 1530.77 1450.34 1530.23C1454.04 1529.69 1457.06 1529.05 1457.06 1528.81C1457.06 1528.58 1458.28 1528.24 1459.78 1528.06C1465.6 1527.36 1476.51 1525.22 1476.51 1524.77C1476.51 1524.52 1477.39 1524.31 1478.45 1524.31C1479.52 1524.31 1482.93 1523.76 1486.04 1523.09C1489.14 1522.42 1492.58 1521.76 1493.68 1521.62C1494.78 1521.49 1496.2 1521.14 1496.83 1520.84C1498.32 1520.15 1506.86 1518.24 1510.7 1517.73C1512.35 1517.51 1513.71 1517.14 1513.71 1516.9C1513.71 1516.66 1515.7 1516.03 1518.14 1515.49C1528.29 1513.24 1530.57 1512.65 1531.97 1511.92C1532.78 1511.5 1534.05 1511.15 1534.78 1511.15C1536.56 1511.15 1544.84 1508.75 1545.08 1508.17C1545.19 1507.92 1545.92 1507.71 1546.71 1507.71C1548.69 1507.71 1554.23 1506.05 1554.68 1505.32C1555.15 1504.56 1553.86 1503.73 1552.19 1503.72C1551.48 1503.71 1550.9 1503.51 1550.9 1503.27C1550.9 1503.03 1549.29 1502.23 1547.32 1501.49C1542.88 1499.83 1541.9 1499.39 1539.74 1498.08C1538.8 1497.5 1537.33 1496.86 1536.49 1496.65C1535.65 1496.44 1534.57 1495.88 1534.1 1495.41C1533.62 1494.93 1532.12 1494.02 1530.77 1493.38C1527.99 1492.08 1527.17 1491.61 1523.07 1488.97C1521.49 1487.95 1519.94 1487.11 1519.63 1487.11C1519.32 1487.11 1518.33 1486.34 1517.43 1485.4C1516.52 1484.45 1515.44 1483.68 1515.03 1483.68C1514.62 1483.68 1513.6 1482.91 1512.76 1481.97C1511.92 1481.02 1510.89 1480.25 1510.48 1480.25C1510.07 1480.25 1508.85 1479.41 1507.76 1478.39C1503.78 1474.66 1502.33 1473.38 1502.06 1473.38C1501.9 1473.38 1501.02 1472.62 1500.1 1471.7C1499.07 1470.68 1497.99 1470.11 1497.33 1470.25C1492.53 1471.3 1479.97 1473.38 1478.43 1473.38C1477.38 1473.38 1476.51 1473.6 1476.51 1473.87C1476.51 1474.35 1471.1 1475.31 1458.22 1477.12C1454.6 1477.62 1451.38 1478.25 1451.06 1478.5C1450.74 1478.76 1448.16 1479.27 1445.33 1479.63C1433.82 1481.12 1426.73 1482.26 1426.73 1482.62C1426.73 1482.84 1424.74 1483.17 1422.3 1483.37C1414.88 1483.96 1399 1486.19 1398.79 1486.67C1398.69 1486.91 1397.26 1487.11 1395.62 1487.11C1393.98 1487.11 1387.11 1487.76 1380.36 1488.54C1373.61 1489.32 1366.47 1489.97 1364.5 1489.97C1362.53 1489.97 1360.47 1490.22 1359.92 1490.51C1357.69 1491.72 1307.52 1494.59 1288.98 1494.56C1284.94 1494.56 1282.54 1494.77 1282.54 1495.14C1282.54 1495.74 1253.42 1495.56 1246.21 1494.92C1244.32 1494.75 1233.89 1494.34 1223.04 1494C1201.07 1493.33 1168.69 1491.26 1167.85 1490.48C1167.55 1490.2 1165.33 1489.98 1162.91 1489.98C1160.5 1489.98 1152.38 1489.33 1144.86 1488.55C1137.35 1487.77 1130.1 1487.12 1128.76 1487.12C1127.42 1487.12 1125.87 1486.88 1125.33 1486.59C1124.33 1486.06 1116.69 1484.5 1110.95 1483.64C1109.25 1483.39 1107.7 1482.93 1107.5 1482.62C1107.31 1482.3 1105.35 1481.47 1103.15 1480.77C1100.96 1480.06 1098.77 1479.19 1098.3 1478.82C1097.83 1478.45 1096.24 1477.47 1094.77 1476.63C1092 1475.05 1088 1470.87 1088 1469.56C1088 1469.14 1087.77 1468.8 1087.5 1468.8C1087.22 1468.8 1086.69 1467.62 1086.33 1466.16C1085.82 1464.13 1085.82 1462.8 1086.35 1460.44C1086.73 1458.75 1087.23 1457.36 1087.46 1457.36C1087.69 1457.36 1088.31 1456.27 1088.84 1454.93C1089.97 1452.11 1093.11 1447.79 1096.5 1444.41C1097.8 1443.11 1098.87 1441.78 1098.87 1441.45C1098.87 1441.12 1099.35 1440.69 1099.93 1440.51C1100.52 1440.32 1101.68 1439.4 1102.51 1438.47C1103.35 1437.53 1104.3 1436.76 1104.63 1436.76C1104.96 1436.76 1105.08 1436.51 1104.88 1436.19C1104.52 1435.61 1103.17 1435.56 1100.59 1436.04ZM1132.63 1584.82C1130.9 1585.32 1129.35 1585.93 1129.18 1586.17C1129.02 1586.41 1127.6 1586.89 1126.04 1587.23C1121.88 1588.14 1117.75 1589.56 1117.75 1590.08C1117.75 1590.33 1116.74 1590.7 1115.5 1590.89C1114.26 1591.09 1111.75 1591.87 1109.92 1592.63C1108.09 1593.39 1106.21 1594.16 1105.74 1594.34C1105.27 1594.53 1104.49 1594.91 1104.02 1595.18C1101.37 1596.74 1098.31 1598.12 1097.51 1598.12C1097 1598.12 1096.58 1598.36 1096.58 1598.65C1096.58 1598.94 1095.13 1599.87 1093.35 1600.71C1091.57 1601.55 1089.58 1602.74 1088.93 1603.35C1088.27 1603.96 1087.16 1604.6 1086.46 1604.78C1085.76 1604.95 1085.03 1605.57 1084.85 1606.16C1084.66 1606.74 1083.94 1607.39 1083.25 1607.61C1081.7 1608.1 1074.84 1615.08 1074.84 1616.16C1074.84 1616.59 1074.49 1617.15 1074.06 1617.4C1073.64 1617.65 1072.8 1618.89 1072.21 1620.15C1070.19 1624.4 1070.94 1637.56 1073.33 1640.04C1073.71 1640.43 1074.69 1641.91 1075.52 1643.32C1077.38 1646.54 1086.18 1654.61 1089.57 1656.22C1090.6 1656.71 1091.43 1657.36 1091.43 1657.67C1091.43 1657.97 1092.07 1658.47 1092.84 1658.76C1093.61 1659.05 1095.35 1659.99 1096.7 1660.85C1100.38 1663.18 1110.84 1668.28 1113.61 1669.1C1114.94 1669.5 1116.04 1669.98 1116.04 1670.16C1116.04 1670.64 1118.57 1671.66 1122.48 1672.75C1124.29 1673.26 1125.77 1673.9 1125.77 1674.18C1125.77 1674.45 1127.12 1674.99 1128.77 1675.37C1132.61 1676.26 1137.41 1677.75 1137.78 1678.18C1137.94 1678.36 1140.51 1679.11 1143.5 1679.85C1146.49 1680.59 1149.69 1681.56 1150.6 1682C1151.51 1682.44 1152.74 1682.8 1153.33 1682.8C1153.92 1682.8 1156.39 1683.31 1158.82 1683.94C1161.25 1684.56 1165.16 1685.34 1167.51 1685.67C1169.86 1686 1171.92 1686.47 1172.09 1686.72C1172.39 1687.16 1179.27 1688.42 1188.42 1689.71C1190.94 1690.07 1193.25 1690.56 1193.57 1690.81C1194.18 1691.3 1199.13 1691.95 1213.6 1693.45C1218.63 1693.98 1223.02 1694.61 1223.35 1694.87C1223.67 1695.12 1229.34 1695.61 1235.93 1695.95C1242.53 1696.29 1252.18 1696.81 1257.37 1697.11C1269.42 1697.81 1307.43 1697.8 1319.74 1697.09C1324.93 1696.8 1334.7 1696.28 1341.44 1695.95C1348.19 1695.62 1353.98 1695.14 1354.32 1694.89C1354.65 1694.64 1359.17 1693.99 1364.37 1693.45C1382.74 1691.56 1385.54 1691.21 1385.54 1690.83C1385.54 1690.62 1388.05 1690.13 1391.12 1689.75C1400.87 1688.55 1409 1687.18 1409 1686.74C1409 1686.51 1410.48 1686.15 1412.29 1685.95C1416.63 1685.48 1431.29 1682.78 1432.74 1682.19C1434.35 1681.54 1443.07 1679.53 1446.33 1679.06C1447.83 1678.84 1449.05 1678.49 1449.05 1678.27C1449.05 1677.91 1452.6 1676.99 1460.35 1675.32C1462 1674.97 1463.35 1674.49 1463.35 1674.27C1463.35 1674.05 1464.71 1673.54 1466.36 1673.15C1473.75 1671.4 1476.51 1670.58 1476.51 1670.17C1476.51 1669.92 1478 1669.42 1479.8 1669.05C1482.68 1668.47 1488.25 1666.83 1490.82 1665.82C1494.75 1664.27 1501.02 1662.22 1501.83 1662.21C1502.38 1662.21 1502.83 1661.99 1502.83 1661.73C1502.83 1661.47 1504.7 1660.66 1506.98 1659.94C1509.26 1659.22 1512.71 1657.89 1514.64 1656.98C1516.56 1656.08 1518.55 1655.34 1519.04 1655.34C1520.19 1655.34 1522.92 1654.14 1523.9 1653.2C1524.32 1652.8 1525.35 1652.33 1526.19 1652.15C1528.81 1651.59 1530.3 1650.82 1530.3 1650.01C1530.3 1649.58 1529.72 1648.94 1529.01 1648.58C1526.62 1647.37 1518.83 1644.47 1517.98 1644.47C1517.52 1644.47 1517.14 1644.27 1517.14 1644.03C1517.14 1643.48 1513.6 1641.93 1510.4 1641.07C1509.07 1640.71 1507.98 1640.19 1507.98 1639.91C1507.98 1639.63 1506.59 1638.88 1504.88 1638.24C1503.18 1637.6 1500.54 1636.43 1499.02 1635.63C1497.5 1634.84 1495.16 1633.75 1493.82 1633.21C1492.49 1632.67 1491.39 1632.02 1491.39 1631.77C1491.39 1631.51 1491.07 1631.3 1490.68 1631.3C1490.28 1631.3 1486.48 1629.5 1482.24 1627.32C1477.99 1625.13 1472.9 1622.53 1470.94 1621.54C1468.97 1620.55 1467.36 1619.57 1467.36 1619.36C1467.36 1619.16 1466.27 1618.52 1464.93 1617.94C1463.59 1617.37 1461.72 1616.33 1460.78 1615.63C1456.87 1612.74 1455.24 1612.34 1450.96 1613.23C1448.81 1613.68 1445.31 1614.22 1443.18 1614.44C1441.06 1614.66 1439.32 1615.02 1439.32 1615.24C1439.32 1615.62 1432.31 1616.85 1422.3 1618.22C1419.39 1618.61 1417.01 1619.11 1417.01 1619.32C1417.01 1619.53 1414.63 1620 1411.71 1620.38C1398.67 1622.08 1393.55 1622.9 1393.55 1623.32C1393.55 1623.57 1391.55 1623.92 1389.11 1624.11C1386.67 1624.3 1380.56 1624.99 1375.52 1625.65C1370.49 1626.3 1363.92 1627.06 1360.93 1627.33C1357.94 1627.59 1353.82 1628.06 1351.78 1628.37C1343.42 1629.62 1325.87 1630.73 1309.15 1631.08C1299.39 1631.28 1291.17 1631.67 1290.87 1631.95C1290.16 1632.6 1280.47 1632.6 1279.22 1631.95C1278.69 1631.68 1269.63 1631.28 1259.08 1631.06C1248.54 1630.84 1235.15 1630.3 1229.33 1629.84C1223.51 1629.39 1216.56 1628.85 1213.88 1628.65C1211.21 1628.45 1208.76 1628.1 1208.45 1627.87C1208.13 1627.64 1205.94 1627.41 1203.58 1627.35C1201.22 1627.29 1194.79 1626.73 1189.28 1626.11C1183.77 1625.48 1175.93 1624.71 1171.85 1624.4C1167.77 1624.09 1164.3 1623.63 1164.13 1623.37C1163.81 1622.91 1158.45 1621.9 1151.37 1620.97C1149.25 1620.69 1146.42 1619.98 1145.08 1619.38C1143.74 1618.78 1141.29 1617.97 1139.62 1617.58C1132.61 1615.95 1123.31 1609.17 1122.56 1605.15C1122.05 1602.44 1122.74 1599.55 1124.36 1597.62C1125.13 1596.7 1125.77 1595.75 1125.77 1595.51C1125.77 1594.92 1132.6 1588.39 1133.22 1588.39C1134.04 1588.39 1136.64 1585.54 1136.64 1584.65C1136.64 1583.66 1136.64 1583.66 1132.63 1584.82ZM981.003 1683.38C978.642 1683.61 973.372 1684.1 969.292 1684.47C965.212 1684.85 961.607 1685.36 961.282 1685.6C960.956 1685.85 957.986 1686.49 954.682 1687.02C948.844 1687.97 945.48 1688.68 938.375 1690.43C936.487 1690.9 932.946 1691.71 930.507 1692.24C928.069 1692.77 926.073 1693.41 926.073 1693.66C926.073 1693.92 924.336 1694.43 922.213 1694.8C920.091 1695.17 916.88 1695.97 915.079 1696.58C913.278 1697.18 911.449 1697.68 911.016 1697.68C910.582 1697.68 909.48 1698.05 908.566 1698.5C907.652 1698.95 904.845 1699.91 902.327 1700.63C899.81 1701.36 897.616 1702.13 897.453 1702.35C897.146 1702.77 893.992 1703.86 889.31 1705.18C887.815 1705.6 886.592 1706.12 886.592 1706.34C886.592 1706.56 884.552 1707.42 882.057 1708.25C879.563 1709.08 877.24 1710.1 876.895 1710.52C876.55 1710.93 875.476 1711.43 874.509 1711.63C872.275 1712.07 867.138 1714.41 867.138 1714.98C867.138 1715.22 866.773 1715.42 866.326 1715.42C865.88 1715.42 864.233 1716.06 862.667 1716.85C861.101 1717.63 859.535 1718.28 859.187 1718.28C858.839 1718.28 858.555 1718.47 858.555 1718.71C858.555 1718.94 856.945 1719.89 854.979 1720.81C853.012 1721.73 851.274 1722.66 851.117 1722.88C850.959 1723.1 849.414 1723.99 847.683 1724.86C845.953 1725.73 844.408 1726.63 844.25 1726.87C843.877 1727.43 839.105 1730.25 837.813 1730.67C837.263 1730.85 836.812 1731.19 836.812 1731.42C836.812 1731.66 835.46 1732.75 833.808 1733.85C832.156 1734.95 829.421 1737.18 827.731 1738.79C826.041 1740.41 824.425 1741.74 824.14 1741.74C823.856 1741.74 823.378 1742.38 823.077 1743.17C822.776 1743.97 821.887 1744.91 821.099 1745.26C820.312 1745.62 819.503 1746.44 819.301 1747.07C819.099 1747.71 818.431 1748.76 817.816 1749.42C817.201 1750.07 816.012 1752.02 815.174 1753.75C813.942 1756.29 813.61 1757.9 813.448 1762.12C813.269 1766.76 813.407 1767.67 814.707 1770.42C816.332 1773.85 820.199 1778.13 823.49 1780.13C824.681 1780.85 825.844 1781.75 826.076 1782.12C826.308 1782.5 827.21 1782.98 828.079 1783.2C828.948 1783.42 830.046 1783.92 830.518 1784.31C831.834 1785.39 840.28 1789.04 842.534 1789.5C843.635 1789.72 845.566 1790.38 846.825 1790.97C848.084 1791.55 851.431 1792.48 854.264 1793.02C857.096 1793.57 859.557 1794.22 859.733 1794.48C860.115 1795.04 874.754 1797.81 877.328 1797.81C878.018 1797.81 878.581 1798.04 878.581 1798.31C878.581 1798.58 881.092 1799.11 884.16 1799.48C894.754 1800.76 905.764 1802.47 906.754 1803C907.3 1803.29 908.716 1803.53 909.901 1803.53C911.085 1803.53 916.303 1804.17 921.495 1804.95C926.688 1805.74 932.395 1806.38 934.179 1806.39C935.962 1806.39 937.507 1806.63 937.612 1806.91C937.809 1807.45 953.492 1809.5 962.263 1810.14C965.017 1810.34 967.27 1810.69 967.27 1810.92C967.27 1811.35 978.938 1812.72 992.589 1813.9C996.917 1814.27 1000.46 1814.76 1000.46 1814.99C1000.46 1815.22 1004.25 1815.7 1008.9 1816.07C1027.62 1817.55 1037.97 1818.58 1038.52 1819.02C1038.85 1819.28 1042.45 1819.65 1046.53 1819.86C1050.62 1820.06 1061.81 1820.85 1071.4 1821.61C1080.99 1822.37 1091.72 1822.99 1095.24 1822.99C1098.76 1822.99 1101.72 1823.2 1101.83 1823.46C1102.13 1824.22 1132 1825.84 1158.09 1826.51C1174.77 1826.94 1182.25 1827.32 1182.53 1827.77C1183.12 1828.71 1320.17 1828.7 1320.76 1827.77C1321.04 1827.32 1328.17 1826.93 1344.05 1826.51C1368.92 1825.85 1397.15 1824.24 1397.46 1823.47C1397.56 1823.2 1400.4 1822.99 1403.75 1822.98C1407.11 1822.98 1415.65 1822.46 1422.73 1821.82C1429.81 1821.19 1439.97 1820.4 1445.31 1820.08C1450.65 1819.76 1455.16 1819.3 1455.33 1819.06C1455.6 1818.67 1460.43 1818.14 1483.24 1816C1487.09 1815.64 1490.25 1815.18 1490.25 1814.97C1490.25 1814.76 1493.27 1814.28 1496.97 1813.9C1510.43 1812.52 1519.15 1811.37 1519.43 1810.95C1519.59 1810.71 1522.49 1810.23 1525.87 1809.89C1534.21 1809.05 1544.28 1807.41 1544.51 1806.85C1544.61 1806.6 1545.78 1806.39 1547.1 1806.39C1548.42 1806.39 1553.17 1805.75 1557.65 1804.96C1562.14 1804.18 1566.68 1803.53 1567.75 1803.53C1568.81 1803.53 1569.77 1803.33 1569.88 1803.07C1570.07 1802.59 1579.81 1800.67 1587.95 1799.49C1590.54 1799.12 1592.67 1798.63 1592.67 1798.39C1592.67 1798.16 1594.66 1797.66 1597.1 1797.28C1604.28 1796.16 1609.76 1794.92 1611.42 1794.05C1612.28 1793.61 1613.7 1793.24 1614.59 1793.24C1616.8 1793.23 1627.24 1790.82 1627.48 1790.26C1627.58 1790.01 1628.22 1789.79 1628.91 1789.79C1629.59 1789.78 1633.03 1789.04 1636.56 1788.14C1640.08 1787.24 1643.11 1786.65 1643.28 1786.82C1643.45 1786.99 1643.59 1786.86 1643.59 1786.53C1643.59 1786.19 1644.56 1785.75 1645.74 1785.53C1646.92 1785.31 1649.41 1784.64 1651.27 1784.04C1653.13 1783.43 1655.27 1782.93 1656.02 1782.93C1656.77 1782.93 1658.6 1782.38 1660.07 1781.7C1661.55 1781.02 1664.38 1780.12 1666.37 1779.7C1668.35 1779.28 1671.34 1778.29 1673 1777.5C1674.67 1776.71 1676.45 1776.07 1676.96 1776.07C1678.14 1776.07 1683.27 1774.34 1683.65 1773.82C1683.8 1773.6 1685.67 1772.96 1687.8 1772.39C1689.93 1771.82 1691.81 1771.13 1691.98 1770.85C1692.15 1770.57 1692.8 1770.35 1693.41 1770.35C1694.02 1770.35 1694.52 1770.09 1694.52 1769.77C1694.52 1769.46 1695 1769.2 1695.59 1769.2C1696.18 1769.2 1698.05 1768.59 1699.74 1767.85C1701.43 1767.1 1703.65 1766.31 1704.67 1766.08C1705.7 1765.86 1706.53 1765.46 1706.53 1765.2C1706.53 1764.94 1708.4 1764.02 1710.68 1763.15C1712.96 1762.29 1714.96 1761.38 1715.12 1761.14C1715.28 1760.9 1716.9 1760.15 1718.72 1759.47C1720.54 1758.79 1722.47 1757.77 1723.01 1757.21C1723.54 1756.65 1724.96 1755.88 1726.16 1755.49C1727.36 1755.11 1728.64 1754.3 1729.01 1753.7C1729.39 1753.1 1730.02 1752.61 1730.41 1752.61C1731.09 1752.61 1736.42 1749.55 1737.84 1748.34C1739.91 1746.58 1740.29 1746.31 1740.8 1746.31C1741.53 1746.31 1752.88 1734.84 1752.88 1734.11C1752.88 1733.8 1753.55 1732.67 1754.37 1731.59C1756.26 1729.12 1757.2 1723.45 1756.63 1718.09C1756.29 1714.95 1755.89 1713.83 1754.55 1712.3C1753.63 1711.26 1752.88 1710.19 1752.88 1709.92C1752.88 1709.66 1751.25 1707.88 1749.25 1705.96C1744.69 1701.57 1734.81 1695.39 1731.7 1694.97C1730.45 1694.8 1729.42 1694.86 1729.42 1695.09C1729.42 1695.32 1730.62 1696.83 1732.08 1698.45C1733.54 1700.07 1735.11 1702.3 1735.58 1703.4C1736.04 1704.5 1736.58 1705.53 1736.78 1705.69C1737.59 1706.32 1738.58 1710.22 1738.58 1712.82C1738.58 1715.76 1737.53 1719.99 1736.81 1719.99C1736.57 1719.99 1736.07 1720.92 1735.7 1722.05C1734.84 1724.64 1727.16 1732.46 1723.66 1734.31C1722.9 1734.71 1722.14 1735.2 1721.98 1735.39C1721.64 1735.8 1719.48 1737.05 1717.12 1738.21C1716.17 1738.68 1714.76 1739.49 1713.97 1740.03C1713.18 1740.56 1711.27 1741.42 1709.73 1741.94C1708.18 1742.45 1706.5 1743.25 1706 1743.7C1705.5 1744.16 1704.06 1744.79 1702.8 1745.1C1700.06 1745.78 1694.92 1747.62 1694.52 1748.06C1694.36 1748.24 1693.07 1748.68 1691.66 1749.04C1690.24 1749.4 1687.28 1750.22 1685.08 1750.85C1682.87 1751.49 1678.88 1752.63 1676.21 1753.4C1673.53 1754.16 1669.99 1754.97 1668.34 1755.18C1666.69 1755.4 1665.34 1755.77 1665.34 1756.01C1665.34 1756.46 1659.8 1757.71 1652.32 1758.96C1650.04 1759.35 1648.17 1759.82 1648.17 1760.02C1648.17 1760.23 1646.17 1760.72 1643.74 1761.11C1632.62 1762.93 1625.55 1764.27 1625.28 1764.63C1625.13 1764.85 1623.19 1765.19 1620.99 1765.39C1618.79 1765.6 1613.12 1766.42 1608.4 1767.23C1594.57 1769.58 1576.6 1772.06 1573.36 1772.06C1571.7 1772.06 1570.35 1772.27 1570.35 1772.52C1570.35 1773.01 1552.39 1775.22 1543.76 1775.8C1540.93 1775.99 1538.35 1776.36 1538.03 1776.61C1537.45 1777.07 1526.79 1778.12 1504.84 1779.86C1498.23 1780.38 1492.55 1781.02 1492.22 1781.28C1491.88 1781.54 1486.73 1782 1480.77 1782.3C1464.37 1783.13 1441.36 1784.84 1441.04 1785.25C1440.88 1785.46 1435.47 1785.79 1429.02 1786C1422.57 1786.2 1410.86 1786.76 1402.99 1787.24C1395.12 1787.72 1380.19 1788.26 1369.8 1788.46C1359.42 1788.65 1350.66 1789 1350.35 1789.24C1350.03 1789.48 1334.46 1790 1315.75 1790.4C1280.02 1791.16 1200.33 1790.78 1180.69 1789.75C1175.19 1789.47 1163.34 1789 1154.37 1788.7C1145.41 1788.41 1129.96 1787.64 1120.04 1786.99C1110.13 1786.33 1099.89 1785.8 1097.29 1785.8C1094.69 1785.8 1092.12 1785.56 1091.57 1785.27C1090.68 1784.8 1069.69 1782.93 1055.24 1782.03C1052.17 1781.84 1049.66 1781.5 1049.66 1781.28C1049.66 1781.06 1045.35 1780.44 1040.08 1779.89C1023.04 1778.13 1015.06 1777.11 1014.45 1776.61C1014.12 1776.34 1012.06 1775.97 1009.87 1775.78C1003.5 1775.22 990.157 1773.02 990.157 1772.52C990.157 1772.27 989.172 1772.06 987.967 1772.06C986.762 1772.06 981.934 1771.28 977.239 1770.33C966.564 1768.16 967.189 1768.3 960.222 1766.61C957.018 1765.83 953.808 1765.2 953.088 1765.2C952.369 1765.2 951.211 1764.84 950.514 1764.4C949.817 1763.96 946.298 1762.92 942.696 1762.08C939.093 1761.25 935.859 1760.33 935.51 1760.04C935.161 1759.75 933.475 1759.15 931.762 1758.69C928.595 1757.85 926.13 1757.01 924.07 1756.06C923.441 1755.77 920.158 1754.46 916.775 1753.14C913.391 1751.81 910.624 1750.54 910.624 1750.3C910.624 1750.07 910.028 1749.72 909.299 1749.54C908.57 1749.36 907.347 1748.66 906.581 1747.99C905.815 1747.32 904.64 1746.33 903.969 1745.8C902.736 1744.82 900.324 1740.39 900.324 1739.11C900.324 1737.64 903.382 1732.61 905.722 1730.21C908.191 1727.69 914.411 1723.24 918.034 1721.41C919.12 1720.87 920.362 1720.07 920.793 1719.63C921.224 1719.2 921.921 1718.85 922.342 1718.85C922.762 1718.85 924.353 1718.23 925.877 1717.47C931.514 1714.65 936.137 1712.66 937.946 1712.28C938.968 1712.07 939.805 1711.68 939.805 1711.42C939.805 1711.16 941.286 1710.51 943.095 1709.98C947.621 1708.64 949.765 1707.83 950.115 1707.33C950.278 1707.1 952.828 1706.26 955.782 1705.48C958.735 1704.69 961.305 1703.82 961.493 1703.54C961.68 1703.27 963.379 1702.72 965.267 1702.33C967.156 1701.93 970.299 1701.11 972.253 1700.5C974.207 1699.89 976.589 1699.4 977.546 1699.4C978.503 1699.4 979.286 1699.18 979.286 1698.92C979.286 1698.36 989.447 1696.19 994.592 1695.65C996.559 1695.45 998.168 1695.09 998.168 1694.86C998.168 1694.07 1013.33 1692.54 1022.63 1692.39C1030.69 1692.26 1031.92 1692.12 1031.93 1691.33C1031.93 1689.96 1030.32 1688.85 1026.21 1687.38C1024.16 1686.65 1022.17 1685.81 1021.79 1685.52C1021.12 1685.01 1018.67 1684.6 1008.75 1683.38C1003.67 1682.75 987.653 1682.75 981.003 1683.38ZM1815.39 1763.91C1815 1764.04 1814.68 1764.51 1814.68 1764.96C1814.68 1765.4 1814.45 1765.77 1814.17 1765.77C1813.9 1765.77 1813.35 1766.53 1812.97 1767.47C1812.58 1768.4 1811.79 1769.31 1811.21 1769.5C1810.63 1769.68 1810.02 1770.28 1809.84 1770.82C1809.67 1771.36 1808.99 1772.19 1808.33 1772.65C1807.67 1773.11 1805.8 1774.71 1804.18 1776.2C1802.56 1777.68 1801.02 1778.91 1800.76 1778.91C1800.5 1778.92 1799.93 1779.25 1799.49 1779.64C1797.77 1781.19 1797.05 1781.7 1795.45 1782.54C1794.54 1783.02 1793.22 1783.95 1792.53 1784.6C1791.83 1785.26 1791.01 1785.8 1790.69 1785.8C1790.38 1785.8 1789.17 1786.44 1788.01 1787.23C1786.86 1788.01 1785.56 1788.66 1785.13 1788.66C1784.7 1788.66 1784.35 1788.86 1784.35 1789.11C1784.35 1789.63 1778.56 1792.66 1777.57 1792.66C1777.21 1792.66 1776.91 1792.88 1776.91 1793.14C1776.91 1793.4 1776.33 1793.88 1775.62 1794.21C1774.92 1794.53 1772.28 1795.77 1769.76 1796.95C1763.63 1799.82 1761.99 1800.53 1760.46 1800.96C1759.75 1801.16 1759.17 1801.56 1759.17 1801.85C1759.17 1802.15 1758.81 1802.39 1758.37 1802.39C1757.93 1802.39 1755.03 1803.43 1751.93 1804.7C1748.83 1805.98 1744.75 1807.53 1742.87 1808.15C1740.98 1808.77 1738.38 1809.77 1737.09 1810.37C1735.8 1810.97 1733.13 1811.89 1731.15 1812.4C1729.18 1812.91 1727.01 1813.67 1726.34 1814.1C1725.68 1814.52 1724.23 1815.04 1723.13 1815.25C1720.25 1815.8 1713.78 1817.89 1713.14 1818.48C1712.84 1818.76 1712.06 1818.98 1711.4 1818.98C1710.74 1818.98 1707.83 1819.72 1704.93 1820.63C1702.04 1821.54 1699.67 1822.15 1699.67 1821.99C1699.67 1821.83 1699.34 1821.96 1698.95 1822.26C1698.56 1822.57 1695.28 1823.55 1691.66 1824.43C1688.04 1825.3 1684.56 1826.23 1683.93 1826.47C1681.77 1827.32 1676.49 1828.63 1673.63 1829.02C1672.06 1829.24 1670 1829.75 1669.05 1830.16C1666.94 1831.08 1660.26 1832.71 1658.62 1832.71C1657.03 1832.71 1650.44 1834.32 1649.2 1835.01C1648.66 1835.31 1647.11 1835.7 1645.76 1835.87C1640.44 1836.56 1630.43 1838.68 1630.43 1839.12C1630.43 1839.37 1629.47 1839.58 1628.29 1839.59C1627.11 1839.59 1623.06 1840.23 1619.29 1841.02C1615.52 1841.8 1611.72 1842.44 1610.84 1842.44C1609.96 1842.44 1608.8 1842.68 1608.25 1842.96C1607.13 1843.55 1594.86 1845.66 1589.23 1846.23C1587.19 1846.44 1585.39 1846.78 1585.23 1846.99C1584.87 1847.47 1574.09 1849.33 1571.78 1849.31C1569.25 1849.29 1557.53 1851.19 1557.18 1851.68C1557.02 1851.91 1554.83 1852.26 1552.32 1852.45C1544.81 1853.04 1530.09 1855.05 1529.02 1855.63C1528.47 1855.93 1526.67 1856.18 1525.02 1856.18C1523.36 1856.19 1516.88 1856.83 1510.61 1857.61C1504.34 1858.39 1497.71 1859.03 1495.87 1859.03C1494.03 1859.03 1492.07 1859.28 1491.53 1859.57C1490.4 1860.18 1469.07 1862.24 1458.2 1862.79C1454.27 1862.99 1450.79 1863.35 1450.48 1863.6C1449.68 1864.24 1396.87 1867.66 1388.3 1867.63C1386.83 1867.62 1385.55 1867.87 1385.44 1868.17C1385.26 1868.7 1378.94 1868.91 1314.87 1870.48C1286.67 1871.17 1253.45 1871.17 1225.9 1870.48C1214.1 1870.18 1193.76 1869.67 1180.69 1869.34C1166.13 1868.98 1156.88 1868.53 1156.76 1868.18C1156.65 1867.87 1155.37 1867.62 1153.9 1867.63C1145.53 1867.65 1093.53 1864.2 1093.15 1863.6C1092.99 1863.35 1089.26 1862.96 1084.85 1862.74C1080.45 1862.52 1071.57 1861.72 1065.11 1860.95C1058.66 1860.19 1051.07 1859.34 1048.23 1859.07C1045.4 1858.79 1039.06 1858.03 1034.13 1857.37C1029.21 1856.71 1023.89 1856.17 1022.31 1856.17C1020.73 1856.17 1019.35 1855.97 1019.24 1855.73C1019.04 1855.24 1004.49 1852.98 997.728 1852.39C994.318 1852.09 993.625 1852.16 993.88 1852.81C994.461 1854.28 1006.23 1860.18 1008.59 1860.18C1009.15 1860.18 1009.61 1860.39 1009.61 1860.65C1009.61 1861.16 1015.6 1863.31 1018.73 1863.93C1019.82 1864.15 1021.06 1864.68 1021.49 1865.11C1021.93 1865.55 1022.7 1865.9 1023.2 1865.9C1023.71 1865.9 1024.91 1866.14 1025.88 1866.43C1026.84 1866.72 1029.05 1867.27 1030.78 1867.65C1032.51 1868.03 1034.19 1868.54 1034.5 1868.78C1034.82 1869.02 1039.06 1870.04 1043.94 1871.04C1048.82 1872.05 1053.06 1873.1 1053.36 1873.39C1053.65 1873.68 1054.56 1873.91 1055.36 1873.91C1056.16 1873.92 1060.15 1874.56 1064.23 1875.35C1068.31 1876.13 1072.75 1876.77 1074.1 1876.77C1075.45 1876.77 1076.56 1876.99 1076.56 1877.25C1076.56 1877.74 1090.56 1879.93 1097.38 1880.5C1099.55 1880.68 1101.75 1881.05 1102.27 1881.33C1103.29 1881.88 1114.26 1883.16 1127.2 1884.24C1131.6 1884.61 1135.46 1885.11 1135.78 1885.35C1136.09 1885.6 1140.21 1886.08 1144.93 1886.44C1165.02 1887.94 1186.32 1889.36 1188.81 1889.36C1190.29 1889.36 1191.63 1889.58 1191.8 1889.84C1191.96 1890.11 1197.96 1890.49 1205.14 1890.69C1212.31 1890.89 1223.45 1891.31 1229.9 1891.62C1279.11 1894.03 1372.35 1894.03 1420.15 1891.62C1426.45 1891.3 1437.58 1890.88 1444.9 1890.69C1452.22 1890.49 1458.2 1890.11 1458.2 1889.85C1458.2 1889.58 1459.43 1889.36 1460.92 1889.36C1462.42 1889.37 1471.11 1888.85 1480.23 1888.23C1489.36 1887.6 1501.08 1886.8 1506.27 1886.44C1511.46 1886.08 1515.97 1885.59 1516.28 1885.35C1516.6 1885.11 1520.59 1884.62 1525.15 1884.27C1540.39 1883.08 1553.19 1881.73 1553.19 1881.3C1553.19 1881.07 1555.44 1880.73 1558.19 1880.54C1566.23 1879.98 1582.94 1877.76 1582.94 1877.24C1582.94 1876.98 1584.42 1876.77 1586.23 1876.77C1588.04 1876.77 1593.37 1876.13 1598.07 1875.34C1602.78 1874.55 1607.48 1873.91 1608.52 1873.91C1609.57 1873.91 1610.87 1873.67 1611.42 1873.37C1612.35 1872.86 1620.96 1871.35 1631.43 1869.86C1634.03 1869.5 1636.15 1869 1636.15 1868.77C1636.15 1868.54 1638.15 1868.05 1640.59 1867.68C1647.98 1866.55 1654.72 1865.19 1655.34 1864.7C1655.67 1864.45 1657.73 1863.96 1659.92 1863.61C1665.15 1862.78 1671.2 1861.29 1671.89 1860.67C1672.19 1860.4 1672.94 1860.18 1673.56 1860.18C1674.86 1860.18 1686.81 1857.44 1688.51 1856.75C1691.24 1855.65 1693.42 1855.02 1698.67 1853.85C1701.73 1853.16 1704.24 1852.41 1704.24 1852.17C1704.24 1851.94 1705.47 1851.43 1706.96 1851.05C1713.46 1849.39 1716.26 1848.49 1716.26 1848.06C1716.26 1847.8 1716.66 1847.59 1717.14 1847.59C1718.18 1847.59 1727.29 1844.66 1727.7 1844.19C1727.86 1844.02 1729.41 1843.4 1731.14 1842.82C1732.87 1842.25 1735.31 1841.32 1736.57 1840.76C1741.21 1838.71 1746.32 1836.72 1746.94 1836.72C1747.29 1836.72 1748.19 1836.24 1748.94 1835.65C1749.69 1835.06 1751.59 1834.14 1753.16 1833.6C1754.73 1833.07 1756.48 1832.14 1757.05 1831.53C1757.61 1830.92 1758.37 1830.43 1758.73 1830.43C1759.65 1830.43 1764.45 1828.06 1765.37 1827.17C1765.78 1826.76 1766.45 1826.42 1766.85 1826.42C1767.26 1826.42 1768.59 1825.7 1769.82 1824.82C1771.04 1823.94 1773.58 1822.37 1775.44 1821.33C1777.31 1820.28 1779.17 1819.09 1779.58 1818.69C1779.98 1818.28 1781.25 1817.37 1782.39 1816.66C1783.54 1815.96 1785.12 1814.78 1785.91 1814.05C1786.69 1813.32 1787.81 1812.57 1788.39 1812.39C1788.97 1812.21 1789.6 1811.57 1789.79 1810.97C1789.98 1810.37 1790.57 1809.75 1791.1 1809.58C1791.64 1809.4 1794.59 1806.62 1797.67 1803.4C1805.22 1795.48 1805.14 1795.59 1806.71 1792.66C1807.47 1791.25 1808.55 1789.75 1809.1 1789.34C1809.65 1788.93 1810.1 1788.16 1810.11 1787.62C1810.11 1787.09 1810.89 1785.25 1811.84 1783.53C1814.21 1779.23 1816.49 1770.59 1816.28 1766.73C1816.16 1764.59 1815.89 1763.74 1815.39 1763.91Z" fill="#5382A1"/>
<path fill-rule="evenodd" clip-rule="evenodd" d="M1450.47 536.573C1450.69 538.067 1451.09 539.422 1451.35 539.583C1451.87 539.904 1453.14 546.268 1454.24 554.024C1454.64 556.778 1455.13 559.031 1455.34 559.031C1455.96 559.031 1456.99 569.201 1457.72 582.71C1458.26 592.5 1458.25 597.992 1457.7 607.887C1456.97 621.156 1456.14 628.712 1455.31 629.727C1455.04 630.059 1454.54 632.248 1454.2 634.591C1453.39 640.236 1451.92 646.427 1450.97 648.25C1450.55 649.06 1450.2 650.335 1450.2 651.084C1450.2 651.832 1449.55 654.229 1448.76 656.411C1447.98 658.591 1447.33 660.894 1447.33 661.527C1447.33 662.161 1446.97 663.038 1446.53 663.478C1446.09 663.917 1445.28 665.766 1444.71 667.585C1444.15 669.404 1442.99 672.309 1442.13 674.04C1441.27 675.771 1440.42 677.836 1440.25 678.629C1440.08 679.422 1439.47 680.581 1438.9 681.204C1438.33 681.827 1437.49 683.493 1437.03 684.905C1436.56 686.318 1435.79 687.875 1435.3 688.366C1434.8 688.857 1433.55 691.048 1432.5 693.236C1431.45 695.424 1429.85 698.321 1428.95 699.674C1428.05 701.027 1427.31 702.379 1427.31 702.678C1427.31 702.977 1426.8 703.728 1426.18 704.347C1425.56 704.965 1424.39 706.703 1423.58 708.209C1422.77 709.714 1421.09 712.362 1419.85 714.093C1418.6 715.824 1416.75 718.463 1415.73 719.958C1414.71 721.453 1413.68 722.676 1413.44 722.676C1413.2 722.676 1413 722.952 1413 723.29C1413 723.849 1408.3 729.895 1405.69 732.689C1405.1 733.319 1403.99 734.728 1403.23 735.821C1402.47 736.914 1401.26 738.284 1400.56 738.866C1399.85 739.448 1399.27 740.121 1399.27 740.361C1399.27 740.992 1395.44 745.129 1380.05 761.155C1378.01 763.279 1376.09 765.018 1375.79 765.018C1375.48 765.018 1375.24 765.242 1375.24 765.517C1375.24 765.98 1371.44 769.766 1366.77 773.953C1364.91 775.626 1363.41 777.052 1362.28 778.225C1362.01 778.502 1360.28 780.086 1358.43 781.744C1356.58 783.401 1354.23 785.53 1353.21 786.475C1352.18 787.419 1350.39 788.964 1349.24 789.908C1348.08 790.852 1346.1 792.525 1344.85 793.627C1343.6 794.728 1341.66 796.402 1340.54 797.346C1339.42 798.29 1337.74 799.706 1336.81 800.493C1334.6 802.355 1332.69 803.92 1329.18 806.732C1327.6 807.991 1325.54 809.681 1324.6 810.486C1322.44 812.323 1318.04 815.868 1316.04 817.373C1315.2 818.002 1313.96 819.032 1313.29 819.661C1312.62 820.291 1311.41 821.251 1310.61 821.796C1308.72 823.079 1305.71 825.559 1303.73 827.464C1302.87 828.294 1301.61 829.148 1300.94 829.362C1300.26 829.577 1299.71 829.955 1299.71 830.203C1299.71 830.767 1293.57 835.396 1292.82 835.396C1292.52 835.396 1292.27 835.589 1292.27 835.825C1292.26 836.062 1290.41 837.671 1288.15 839.402C1285.89 841.132 1283.51 843.072 1282.86 843.712C1282.22 844.352 1280.91 845.358 1279.97 845.947C1279.02 846.537 1278.04 847.371 1277.79 847.8C1277.53 848.229 1277.08 848.431 1276.79 848.249C1276.49 848.066 1276.25 848.125 1276.24 848.38C1276.24 848.634 1274.41 850.259 1272.18 851.99C1269.94 853.721 1267.49 855.716 1266.72 856.424C1265.95 857.132 1265.14 857.715 1264.92 857.718C1264.7 857.722 1263.43 858.688 1262.1 859.864C1260.77 861.041 1258.5 862.904 1257.06 864.006C1255.61 865.107 1253.84 866.588 1253.12 867.296C1252.39 868.003 1251.67 868.583 1251.51 868.583C1251.35 868.583 1250.48 869.222 1249.57 870.002C1248.67 870.783 1245.87 873.105 1243.35 875.163C1236.52 880.747 1234.5 882.426 1232.35 884.318C1229.65 886.69 1228.13 887.997 1225.36 890.326C1224.05 891.428 1221.98 893.23 1220.75 894.331C1219.53 895.433 1217.61 897.106 1216.5 898.051C1215.38 898.995 1214.02 900.247 1213.46 900.833C1211.6 902.796 1211.18 903.187 1207.6 906.347C1205.64 908.078 1202.97 910.609 1201.66 911.972C1200.36 913.334 1198.8 914.879 1198.2 915.405C1197.61 915.93 1196.67 916.837 1196.12 917.419C1194.36 919.276 1193.93 919.723 1190.28 923.448C1188.31 925.457 1185.74 928.021 1184.56 929.146C1183.38 930.27 1182.41 931.419 1182.41 931.7C1182.41 931.979 1181.7 932.909 1180.84 933.764C1179.19 935.39 1177.09 937.803 1174.01 941.585C1173 942.817 1170.47 945.885 1168.37 948.403C1166.27 950.92 1163.9 953.99 1163.11 955.224C1162.32 956.458 1161.2 957.974 1160.63 958.591C1160.05 959.209 1159.17 960.583 1158.67 961.645C1158.16 962.707 1157.27 964.024 1156.69 964.572C1156.11 965.12 1155.07 966.664 1154.37 968.003C1153.68 969.342 1152.89 970.576 1152.61 970.744C1152.34 970.913 1151.59 972.254 1150.94 973.725C1150.29 975.195 1149.43 976.793 1149.04 977.277C1148.64 977.761 1147.64 979.701 1146.82 981.59C1145.99 983.478 1144.74 986.31 1144.04 987.884C1143.34 989.457 1142.29 992.664 1141.69 995.009C1141.1 997.354 1140.4 999.414 1140.14 999.586C1139.87 999.759 1139.49 1000.41 1139.3 1001.04C1138.66 1003.15 1136.64 1018.48 1136.64 1021.25C1136.64 1022.76 1136.36 1024.27 1136.01 1024.61C1135.38 1025.25 1135.48 1027.79 1136.57 1038.81C1137.65 1049.69 1139.14 1059.14 1140 1060.55C1140.73 1061.75 1141.77 1065.18 1141.78 1066.41C1141.79 1067.89 1144.04 1074.71 1144.66 1075.14C1144.89 1075.3 1145.27 1076.33 1145.51 1077.43C1146.16 1080.42 1155.54 1101.14 1156.65 1102.03C1156.84 1102.19 1157.86 1104.06 1158.9 1106.18C1159.95 1108.31 1161 1110.05 1161.25 1110.05C1161.49 1110.05 1161.84 1110.63 1162.02 1111.36C1162.2 1112.08 1163.77 1114.84 1165.51 1117.51C1167.25 1120.17 1168.68 1122.64 1168.68 1123C1168.68 1123.36 1169.05 1123.8 1169.51 1123.97C1169.97 1124.15 1170.84 1125.27 1171.45 1126.47C1172.06 1127.66 1173.1 1129.13 1173.77 1129.73C1174.43 1130.33 1174.97 1131.15 1174.97 1131.55C1174.97 1131.95 1175.62 1133.04 1176.41 1133.98C1177.93 1135.78 1180.92 1139.87 1183.19 1143.23C1183.94 1144.33 1185.47 1146.26 1186.61 1147.52C1187.75 1148.78 1188.68 1149.96 1188.69 1150.15C1188.7 1150.33 1189.74 1151.6 1190.99 1152.96C1192.25 1154.32 1193.28 1155.64 1193.28 1155.89C1193.28 1156.14 1193.86 1156.95 1194.57 1157.69C1196.14 1159.34 1200.12 1164.11 1201.18 1165.63C1201.61 1166.24 1202.52 1167.32 1203.2 1168.04C1203.88 1168.76 1204.88 1169.85 1205.41 1170.45C1205.95 1171.06 1206.72 1171.9 1207.13 1172.33C1209.67 1174.96 1211.53 1177.09 1211.69 1177.53C1211.8 1177.81 1214.2 1180.55 1217.03 1183.61C1219.86 1186.67 1222.95 1190.07 1223.89 1191.15C1227.06 1194.79 1264.73 1232.49 1265.2 1232.49C1265.46 1232.49 1266.18 1233.27 1266.81 1234.21C1267.44 1235.15 1268.21 1235.92 1268.53 1235.93C1268.84 1235.93 1269.61 1236.7 1270.24 1237.64C1270.87 1238.58 1271.56 1239.36 1271.76 1239.36C1271.97 1239.36 1274.29 1241.44 1276.91 1243.98C1279.54 1246.53 1282.33 1249.12 1283.12 1249.75C1283.9 1250.38 1286.38 1252.61 1288.62 1254.71C1290.85 1256.81 1294.59 1260.28 1296.91 1262.41C1299.24 1264.55 1302.94 1267.96 1305.14 1270C1307.35 1272.04 1309.94 1274.25 1310.91 1274.93C1311.88 1275.6 1312.91 1276.69 1313.2 1277.34C1313.74 1278.57 1316.56 1279.91 1317.22 1279.26C1317.64 1278.84 1315.69 1273.12 1315.13 1273.12C1314.93 1273.12 1314.05 1271.46 1313.19 1269.42C1312.32 1267.39 1311.26 1265.43 1310.81 1265.06C1310.37 1264.7 1310.01 1263.95 1310.01 1263.41C1310.01 1262.86 1309.24 1261.35 1308.29 1260.05C1307.35 1258.74 1306.58 1257.31 1306.58 1256.85C1306.58 1256.39 1306.31 1255.86 1305.99 1255.66C1305.68 1255.46 1305.02 1254.36 1304.54 1253.22C1304.06 1252.07 1303.45 1250.99 1303.18 1250.82C1302.91 1250.65 1302.05 1249.33 1301.28 1247.87C1300.51 1246.41 1299.19 1244.33 1298.36 1243.24C1297.53 1242.15 1296.85 1241 1296.85 1240.68C1296.85 1240.36 1296.32 1239.5 1295.68 1238.76C1295.04 1238.02 1293.73 1236.05 1292.78 1234.38C1291.82 1232.71 1290.8 1231.35 1290.51 1231.35C1290.22 1231.35 1289.98 1231.11 1289.98 1230.81C1289.98 1230.34 1283.39 1220.31 1281.94 1218.57C1281.63 1218.2 1279.82 1215.52 1277.92 1212.61C1276.01 1209.7 1274.21 1207.32 1273.92 1207.32C1273.63 1207.32 1273.39 1206.98 1273.39 1206.56C1273.39 1205.84 1269.93 1200.73 1268 1198.59C1267.5 1198.04 1267.09 1197.34 1267.09 1197.05C1267.09 1196.75 1266.42 1195.78 1265.61 1194.9C1264.79 1194.02 1263.62 1192.33 1263.02 1191.15C1262.42 1189.97 1261.7 1189.01 1261.43 1189.01C1261.15 1189.01 1260.53 1188.17 1260.05 1187.15C1259.56 1186.12 1258.69 1184.77 1258.11 1184.14C1257.53 1183.51 1256.29 1181.78 1255.35 1180.28C1254.41 1178.79 1253.46 1177.56 1253.22 1177.56C1252.98 1177.56 1252.79 1177.2 1252.79 1176.75C1252.79 1176.3 1252.15 1175.17 1251.36 1174.23C1250.57 1173.3 1249.93 1172.27 1249.93 1171.95C1249.93 1171.63 1249.74 1171.28 1249.5 1171.17C1248.71 1170.82 1246.5 1167.32 1246.5 1166.43C1246.5 1165.95 1245.98 1165.24 1245.35 1164.84C1244.72 1164.45 1244.21 1163.9 1244.21 1163.62C1244.21 1163.34 1243.18 1161.57 1241.92 1159.69C1240.66 1157.8 1239.63 1156.07 1239.63 1155.84C1239.63 1155.61 1238.86 1154.35 1237.91 1153.05C1236.97 1151.75 1236.2 1150.52 1236.2 1150.33C1236.2 1150.14 1234.82 1147.63 1233.14 1144.75C1231.45 1141.87 1229.78 1138.64 1229.42 1137.57C1229.06 1136.51 1228.42 1135.35 1227.99 1135C1227.57 1134.65 1226.79 1133.17 1226.25 1131.7C1225.71 1130.24 1224.77 1128.46 1224.16 1127.75C1223.54 1127.04 1223.04 1125.96 1223.04 1125.34C1223.04 1124.73 1222.29 1122.77 1221.37 1121C1219.47 1117.3 1216.74 1110.16 1216.74 1108.86C1216.74 1108.38 1216.52 1107.74 1216.24 1107.44C1215.62 1106.77 1213.69 1100.61 1212.7 1096.14C1212.3 1094.32 1211.78 1092.71 1211.55 1092.56C1210.78 1092.09 1208.16 1073.58 1208.16 1068.63C1208.16 1066.9 1207.9 1065.32 1207.59 1065.13C1207.27 1064.93 1207.02 1062.87 1207.02 1060.55C1207.02 1058.23 1207.27 1056.17 1207.59 1055.97C1207.9 1055.78 1208.16 1054.41 1208.16 1052.94C1208.17 1047.95 1210.46 1032.54 1211.84 1028.22C1212.6 1025.86 1214.05 1021.29 1215.06 1018.07C1216.08 1014.84 1217.25 1011.54 1217.67 1010.72C1218.1 1009.91 1218.76 1008.17 1219.14 1006.86C1219.52 1005.55 1220 1004.35 1220.21 1004.19C1220.86 1003.71 1223.04 999.137 1223.04 998.276C1223.04 997.83 1223.43 997.139 1223.91 996.74C1224.39 996.342 1225.56 994.444 1226.52 992.522C1228.87 987.8 1229.72 986.315 1233.21 980.878C1234.85 978.315 1236.2 975.946 1236.2 975.613C1236.2 975.281 1236.43 975.009 1236.72 975.009C1237.01 975.009 1237.83 974.044 1238.55 972.864C1239.26 971.684 1240.7 969.706 1241.74 968.469C1242.78 967.233 1243.64 965.972 1243.64 965.668C1243.64 965.365 1244.16 964.574 1244.81 963.912C1245.46 963.249 1247.67 960.648 1249.72 958.13C1257.54 948.539 1257.52 948.558 1266.73 938.759C1274.64 930.343 1274.15 930.831 1275.61 929.823C1276.28 929.361 1276.82 928.662 1276.82 928.27C1276.82 927.879 1277.39 927.255 1278.08 926.884C1278.77 926.513 1280.61 924.963 1282.16 923.438C1288.01 917.678 1298.39 908.636 1299.16 908.636C1299.46 908.636 1299.71 908.309 1299.71 907.91C1299.71 907.511 1300.32 906.803 1301.07 906.337C1302.64 905.361 1307.89 900.95 1309.74 899.052C1310.43 898.344 1311.23 897.763 1311.5 897.762C1311.78 897.76 1312.95 896.923 1314.1 895.902C1315.25 894.881 1317.79 892.758 1319.76 891.184C1321.73 889.611 1324.01 887.712 1324.83 886.965C1325.65 886.218 1327.28 884.992 1328.46 884.24C1329.64 883.488 1330.61 882.619 1330.61 882.308C1330.61 881.997 1330.93 881.74 1331.32 881.736C1331.72 881.732 1333.11 880.767 1334.41 879.591C1335.72 878.414 1337.99 876.422 1339.47 875.163C1340.95 873.904 1343.48 871.652 1345.09 870.157C1346.7 868.662 1348.48 867.293 1349.04 867.114C1349.6 866.936 1350.06 866.587 1350.06 866.34C1350.06 866.092 1351.93 864.285 1354.21 862.325C1361.65 855.935 1370.56 847.59 1384.85 833.624C1390.89 827.719 1397.55 820.57 1397.55 819.991C1397.55 819.653 1397.91 819.375 1398.35 819.375C1398.78 819.375 1399.6 818.667 1400.16 817.802C1400.72 816.937 1402.23 815.183 1403.51 813.906C1404.8 812.63 1406.37 810.956 1407.01 810.187C1409.39 807.336 1414.46 801.393 1415.29 800.484C1415.76 799.967 1417.56 797.788 1419.3 795.642C1421.03 793.495 1423.28 790.812 1424.3 789.679C1425.32 788.546 1426.16 787.312 1426.16 786.936C1426.16 786.56 1426.62 785.917 1427.17 785.506C1427.73 785.094 1428.61 784.086 1429.14 783.265C1429.66 782.444 1430.51 781.349 1431.03 780.833C1431.54 780.317 1431.81 779.894 1431.62 779.894C1431.43 779.894 1431.8 779.315 1432.46 778.607C1434.43 776.458 1437.09 772.842 1438.03 771.026C1438.52 770.081 1439.4 768.973 1439.98 768.561C1440.56 768.15 1441.04 767.313 1441.04 766.702C1441.04 766.09 1441.26 765.59 1441.54 765.59C1441.81 765.59 1442.96 764.11 1444.1 762.3C1445.23 760.49 1447.33 757.207 1448.75 755.004C1450.17 752.801 1451.33 750.699 1451.33 750.331C1451.34 749.965 1451.63 749.567 1451.98 749.449C1452.69 749.213 1455.48 744.454 1458.2 738.84C1459.15 736.873 1460.19 735.264 1460.5 735.264C1460.81 735.264 1461.07 734.899 1461.07 734.453C1461.07 733.61 1463.83 727.756 1464.47 727.253C1464.98 726.847 1467.93 720.087 1467.93 719.314C1467.93 718.96 1468.18 718.671 1468.49 718.671C1468.8 718.671 1469.22 717.962 1469.43 717.097C1469.64 716.232 1469.99 715.266 1470.21 714.951C1470.44 714.637 1471.07 712.963 1471.62 711.232C1472.16 709.501 1472.96 707.695 1473.39 707.218C1473.81 706.741 1474.44 705.067 1474.79 703.499C1475.14 701.93 1475.91 699.617 1476.5 698.358C1477.08 697.099 1478.13 694.009 1478.83 691.492C1479.52 688.974 1480.35 686.271 1480.68 685.484C1481 684.697 1481.37 683.41 1481.49 682.623C1481.61 681.836 1482.23 679.318 1482.87 677.027C1483.5 674.736 1484.17 671.067 1484.36 668.873C1484.54 666.68 1484.87 664.885 1485.09 664.885C1485.31 664.885 1485.98 661.602 1486.58 657.59C1488.1 647.395 1488.14 620.12 1486.65 610.814C1486.09 607.352 1485.39 604.434 1485.08 604.329C1484.77 604.224 1484.52 602.937 1484.52 601.468C1484.52 600 1483.77 596.03 1482.85 592.647C1481.93 589.264 1481.32 586.496 1481.49 586.496C1481.66 586.496 1481.52 586.15 1481.17 585.728C1480.82 585.306 1480.01 583.311 1479.37 581.294C1478.73 579.277 1477.41 575.696 1476.43 573.336C1474.43 568.489 1473.84 566.951 1473.74 566.316C1473.71 566.073 1473.16 565.317 1472.52 564.634C1471.88 563.951 1471.35 562.991 1471.34 562.499C1471.33 562.008 1470.68 560.576 1469.91 559.317C1469.14 558.058 1467.84 555.687 1467.02 554.049C1466.2 552.409 1465.17 550.768 1464.73 550.402C1464.29 550.036 1463.93 549.421 1463.93 549.037C1463.93 548.652 1463.41 547.871 1462.78 547.301C1462.15 546.732 1461.64 545.918 1461.64 545.492C1461.64 545.067 1460.99 544.159 1460.21 543.475C1459.42 542.791 1458.78 541.945 1458.78 541.595C1458.78 541.246 1457.94 540.032 1456.92 538.899C1455.89 537.765 1454.5 536.167 1453.81 535.347C1453.13 534.526 1452.01 533.855 1451.32 533.855C1450.15 533.855 1450.09 534.034 1450.47 536.573ZM1620.13 810.757C1620.13 811.053 1618.91 811.467 1617.41 811.678C1615.92 811.889 1612.89 812.577 1610.69 813.207C1608.49 813.836 1605.91 814.485 1604.97 814.647C1604.03 814.809 1603 815.138 1602.68 815.377C1602.37 815.618 1599.53 816.522 1596.39 817.388C1593.24 818.254 1589.89 819.274 1588.95 819.655C1585.6 821.005 1583.77 821.597 1581.8 821.971C1580.69 822.178 1579.25 822.692 1578.59 823.112C1577.92 823.531 1575.86 824.287 1574.01 824.791C1568.04 826.416 1566.35 826.989 1566.35 827.386C1566.35 827.779 1563.47 828.75 1560.36 829.402C1559.42 829.598 1557.36 830.341 1555.78 831.053C1553.09 832.262 1540.15 837.167 1536.31 838.433C1535.36 838.744 1533.69 839.453 1532.59 840.009C1531.49 840.565 1528.85 841.579 1526.72 842.263C1524.6 842.947 1522.86 843.706 1522.86 843.949C1522.86 844.193 1521.06 844.959 1518.87 845.653C1516.67 846.346 1514.72 847.154 1514.54 847.449C1514.36 847.744 1513.71 847.984 1513.1 847.984C1512.49 847.984 1511.99 848.242 1511.99 848.557C1511.99 848.871 1511.6 849.129 1511.12 849.129C1510.64 849.129 1508 850.184 1505.26 851.475C1502.51 852.765 1499.36 854.203 1498.26 854.67C1497.16 855.137 1495.74 855.795 1495.11 856.132C1491.83 857.893 1488.27 859.428 1487.48 859.428C1487.16 859.428 1486.55 859.76 1486.14 860.165C1485.38 860.907 1483.2 862.004 1479.23 863.636C1478.05 864.122 1477.09 864.79 1477.09 865.121C1477.09 865.451 1476.71 865.722 1476.24 865.722C1475.38 865.722 1469.02 868.542 1468.5 869.152C1468.22 869.493 1463.82 871.825 1457.36 875.055C1455.48 875.996 1453.64 877.071 1453.27 877.446C1452.89 877.819 1451.08 878.855 1449.24 879.746C1447.41 880.637 1445.76 881.569 1445.6 881.818C1445.43 882.067 1444.38 882.653 1443.26 883.118C1442.15 883.585 1440.91 884.354 1440.52 884.829C1440.12 885.303 1438.66 886.242 1437.27 886.916C1434.98 888.028 1428.02 892.382 1426.34 893.756C1425.96 894.064 1424.65 894.839 1423.42 895.479C1422.2 896.119 1420.59 897.282 1419.86 898.062C1419.12 898.842 1418.26 899.481 1417.93 899.481C1417.37 899.481 1410.74 903.879 1410.14 904.651C1409.98 904.853 1408.56 905.9 1406.98 906.978C1402.49 910.047 1396.74 914.513 1396.24 915.331C1395.98 915.74 1395.55 916.074 1395.26 916.074C1394.98 916.074 1394.15 916.654 1393.42 917.362C1392.69 918.07 1391.36 919.164 1390.46 919.794C1389.56 920.423 1387.95 921.71 1386.9 922.655C1385.84 923.599 1383.65 925.53 1382.03 926.946C1380.41 928.362 1378.67 930.003 1378.16 930.592C1377.65 931.182 1376.89 931.954 1376.47 932.309C1376.04 932.664 1372.31 936.334 1368.17 940.467C1359.15 949.477 1356.01 952.963 1351.78 958.671C1350.68 960.157 1348.94 962.348 1347.92 963.54C1346.89 964.732 1346.06 965.853 1346.06 966.032C1346.06 966.211 1344.64 968.331 1342.91 970.743C1341.18 973.156 1339.76 975.404 1339.76 975.74C1339.76 976.075 1339.4 976.756 1338.95 977.253C1337.9 978.428 1335.67 982.365 1333.41 987.025C1332.43 989.071 1331.41 990.878 1331.15 991.04C1330.75 991.293 1328.35 997.178 1327.36 1000.33C1327.18 1000.88 1326.81 1001.33 1326.53 1001.33C1326.26 1001.33 1326.03 1001.84 1326.03 1002.46C1326.03 1003.08 1325.39 1005.3 1324.6 1007.39C1323.81 1009.48 1323.17 1011.91 1323.17 1012.79C1323.17 1013.67 1322.92 1014.48 1322.62 1014.59C1321.81 1014.87 1320.37 1020.92 1319.66 1027.08C1319.31 1030.07 1318.8 1032.8 1318.51 1033.15C1318.23 1033.51 1317.75 1037.76 1317.44 1042.6C1316.85 1051.78 1317.55 1067.88 1318.6 1069.15C1318.9 1069.5 1319.3 1071.7 1319.49 1074.04C1319.93 1079.26 1321.93 1088.3 1322.64 1088.3C1322.93 1088.3 1323.17 1089 1323.17 1089.85C1323.17 1091.67 1325.66 1100.21 1327.14 1103.46C1327.71 1104.72 1328.6 1107.04 1329.11 1108.61C1329.62 1110.19 1330.67 1112.76 1331.43 1114.34C1332.2 1115.91 1333.14 1118.06 1333.52 1119.11C1333.91 1120.16 1334.51 1121.31 1334.87 1121.68C1335.22 1122.05 1335.96 1123.53 1336.5 1124.97C1337.05 1126.41 1337.97 1128.1 1338.56 1128.73C1339.14 1129.36 1339.81 1130.47 1340.04 1131.2C1340.27 1131.93 1341.2 1133.71 1342.1 1135.16C1343 1136.61 1344.42 1139.08 1345.26 1140.66C1346.1 1142.23 1347.39 1144.25 1348.14 1145.14C1348.88 1146.02 1349.49 1147.08 1349.49 1147.48C1349.49 1147.89 1350.13 1148.91 1350.92 1149.76C1351.71 1150.61 1352.35 1151.44 1352.35 1151.61C1352.35 1151.98 1358.19 1160.3 1359.36 1161.6C1359.81 1162.1 1360.97 1163.65 1361.93 1165.05C1362.9 1166.45 1364.55 1168.65 1365.6 1169.94C1366.65 1171.24 1368.29 1173.26 1369.23 1174.45C1371.28 1177.03 1373.91 1180.1 1375.63 1181.93C1376.31 1182.66 1377.59 1184.23 1378.46 1185.42C1379.32 1186.6 1380.31 1187.83 1380.64 1188.15C1381.59 1189.04 1384.42 1192.93 1384.49 1193.43C1384.52 1193.67 1385.03 1194.21 1385.61 1194.62C1386.2 1195.03 1386.68 1195.7 1386.68 1196.11C1386.68 1196.52 1387.29 1197.51 1388.04 1198.32C1388.79 1199.12 1390.14 1201.35 1391.04 1203.26C1391.95 1205.18 1392.88 1206.74 1393.12 1206.74C1393.35 1206.74 1393.55 1207.03 1393.55 1207.38C1393.55 1207.72 1394.19 1209.29 1394.98 1210.86C1395.76 1212.42 1396.41 1214.14 1396.41 1214.67C1396.41 1215.21 1396.76 1216.15 1397.18 1216.77C1398.25 1218.33 1399.61 1222.85 1400.44 1227.63C1400.82 1229.83 1401.42 1232 1401.78 1232.44C1402.65 1233.54 1402.67 1256.4 1401.79 1256.97C1401.45 1257.2 1400.76 1259.84 1400.26 1262.85C1399.76 1265.86 1398.69 1269.77 1397.88 1271.54C1397.07 1273.31 1396.41 1275.14 1396.41 1275.6C1396.41 1276.06 1395.77 1277.81 1394.98 1279.5C1394.2 1281.18 1393.56 1283.01 1393.55 1283.56C1393.55 1284.11 1393.28 1284.56 1392.95 1284.56C1392.62 1284.56 1391.63 1286.17 1390.75 1288.14C1389.87 1290.1 1388.74 1292.05 1388.24 1292.47C1387.74 1292.88 1387.17 1293.94 1386.98 1294.82C1386.78 1295.7 1385.87 1297.14 1384.94 1298.03C1384.01 1298.92 1383.25 1299.95 1383.25 1300.31C1383.25 1300.68 1382.6 1301.72 1381.81 1302.64C1381.01 1303.55 1379.66 1305.33 1378.8 1306.59C1377.94 1307.85 1376.6 1309.56 1375.81 1310.39C1375.02 1311.22 1373.35 1313.07 1372.09 1314.51C1368.68 1318.41 1364.79 1322.42 1362.75 1324.13C1360.41 1326.1 1360.28 1327.76 1362.51 1327.23C1363.37 1327.02 1364.72 1326.34 1365.51 1325.72C1366.3 1325.09 1367.83 1324.18 1368.91 1323.69C1369.99 1323.2 1371.69 1322.17 1372.68 1321.42C1373.67 1320.66 1374.75 1320.04 1375.07 1320.04C1375.39 1320.04 1376.78 1319.14 1378.16 1318.04C1379.54 1316.94 1381 1316.04 1381.39 1316.04C1381.79 1316.03 1382.92 1315.26 1383.91 1314.31C1384.9 1313.37 1386 1312.6 1386.35 1312.6C1386.71 1312.6 1387.84 1311.83 1388.88 1310.88C1389.91 1309.94 1390.91 1309.17 1391.1 1309.17C1391.28 1309.17 1392.23 1308.57 1393.21 1307.84C1394.18 1307.1 1395.43 1306.34 1395.98 1306.14C1396.53 1305.93 1396.98 1305.53 1396.98 1305.23C1396.98 1304.94 1398.14 1304.02 1399.56 1303.19C1400.97 1302.36 1402.13 1301.49 1402.13 1301.25C1402.13 1301.02 1402.84 1300.4 1403.7 1299.87C1404.57 1299.34 1406.15 1298.12 1407.21 1297.17C1408.28 1296.21 1409.32 1295.43 1409.52 1295.43C1409.72 1295.43 1411.16 1294.29 1412.73 1292.9C1414.29 1291.51 1416.7 1289.38 1418.08 1288.18C1429.03 1278.61 1449.71 1255.5 1451.4 1250.95C1451.61 1250.37 1452.19 1249.56 1452.7 1249.15C1453.2 1248.73 1454.19 1247.2 1454.91 1245.75C1455.62 1244.3 1456.65 1242.65 1457.2 1242.09C1457.75 1241.53 1458.2 1240.74 1458.2 1240.33C1458.2 1239.92 1458.93 1238.44 1459.82 1237.03C1461.97 1233.65 1467.93 1218.82 1467.93 1216.87C1467.93 1216.02 1468.23 1215.33 1468.6 1215.33C1468.97 1215.33 1469.13 1215.19 1468.97 1215.03C1468.8 1214.86 1469.18 1212.99 1469.82 1210.88C1470.8 1207.61 1471.01 1204.95 1471.21 1193.3C1471.43 1180.98 1471.33 1178.98 1470.26 1173.84C1469.6 1170.7 1468.8 1168.04 1468.49 1167.93C1468.18 1167.83 1467.93 1167 1467.93 1166.11C1467.93 1163.48 1462.03 1148.45 1460.52 1147.24C1460.32 1147.08 1459.41 1145.34 1458.49 1143.37C1457.57 1141.41 1456.61 1139.8 1456.36 1139.8C1456.11 1139.8 1455.34 1138.64 1454.65 1137.22C1453.96 1135.81 1453.19 1134.65 1452.94 1134.65C1452.69 1134.65 1452.48 1134.4 1452.48 1134.11C1452.48 1133.81 1451.84 1132.87 1451.05 1132.02C1450.27 1131.17 1449.62 1130.17 1449.62 1129.8C1449.62 1129.43 1448.98 1128.52 1448.19 1127.78C1447.4 1127.04 1446.76 1126.14 1446.76 1125.77C1446.76 1125.4 1446.22 1124.61 1445.57 1124.02C1444.47 1123.03 1441.04 1118.29 1441.04 1117.78C1441.04 1117.65 1440.27 1116.71 1439.32 1115.67C1438.38 1114.64 1437.61 1113.48 1437.61 1113.09C1437.61 1112.7 1437.03 1111.79 1436.32 1111.07C1434.9 1109.62 1432.23 1105.93 1430.45 1102.97C1429.82 1101.93 1428.72 1100.32 1428 1099.41C1426.52 1097.52 1422.4 1091.37 1420.81 1088.67C1420.23 1087.68 1419.26 1086.41 1418.66 1085.85C1418.07 1085.28 1417.58 1084.48 1417.58 1084.07C1417.58 1083.65 1417.09 1082.69 1416.5 1081.93C1415.9 1081.17 1414.7 1079.27 1413.83 1077.71C1410.63 1071.96 1410.1 1071.04 1409.33 1069.81C1408.9 1069.12 1408.36 1067.96 1408.14 1067.22C1407.92 1066.47 1407.12 1064.96 1406.37 1063.86C1405.62 1062.75 1404.57 1060.46 1404.04 1058.77C1403.5 1057.07 1402.89 1055.69 1402.68 1055.69C1402.46 1055.69 1401.85 1054.21 1401.31 1052.4C1400.14 1048.45 1398.79 1044.38 1398.12 1042.81C1397.86 1042.18 1397.18 1038.84 1396.62 1035.37C1395.34 1027.53 1395.35 1015.99 1396.63 1009.63C1397.14 1007.11 1397.55 1004.34 1397.55 1003.48C1397.55 1002.61 1397.79 1001.9 1398.09 1001.9C1398.38 1001.9 1398.78 1001.32 1398.98 1000.61C1400.5 995.093 1402.31 989.886 1402.71 989.886C1402.97 989.886 1403.6 988.639 1404.1 987.114C1404.61 985.59 1405.66 983.479 1406.44 982.426C1407.22 981.372 1407.85 980.296 1407.85 980.037C1407.85 979.777 1408.55 978.475 1409.41 977.144C1410.26 975.813 1410.97 974.595 1410.98 974.437C1410.99 974.28 1411.71 973.226 1412.57 972.095C1413.44 970.964 1414.15 969.855 1414.15 969.631C1414.15 969.408 1414.92 968.402 1415.86 967.397C1416.8 966.391 1417.58 965.238 1417.58 964.835C1417.58 964.432 1417.98 963.95 1418.46 963.764C1418.94 963.579 1419.71 962.71 1420.16 961.833C1421.17 959.885 1428.7 950.919 1429.88 950.255C1430.35 949.992 1430.74 949.467 1430.74 949.089C1430.75 948.712 1431.52 947.795 1432.46 947.051C1433.4 946.307 1434.17 945.335 1434.17 944.891C1434.17 944.447 1434.82 943.837 1435.61 943.536C1436.4 943.236 1437.34 942.341 1437.7 941.548C1438.07 940.755 1438.54 940.106 1438.75 940.106C1438.96 940.106 1441.22 938.111 1443.76 935.672C1446.3 933.232 1448.98 930.68 1449.71 929.999C1450.45 929.318 1451.35 928.462 1451.72 928.097C1453.32 926.52 1456.44 923.754 1457.22 923.227C1458.29 922.503 1464.33 917.446 1468.71 913.606C1470.55 911.99 1472.81 910.209 1473.73 909.648C1474.65 909.088 1475.56 908.245 1475.74 907.774C1475.92 907.304 1476.37 906.919 1476.75 906.919C1477.13 906.919 1478.42 906.018 1479.62 904.917C1480.82 903.815 1481.9 902.914 1482.02 902.914C1482.29 902.914 1487.58 898.889 1487.96 898.397C1488.12 898.192 1489.02 897.542 1489.96 896.952C1490.9 896.362 1492.06 895.524 1492.54 895.089C1493.7 894.014 1498.03 890.867 1500.27 889.468C1501.28 888.838 1502.85 887.726 1503.76 886.996C1507.23 884.209 1511.79 881.033 1513.85 879.968C1515.03 879.358 1515.99 878.648 1515.99 878.39C1515.99 878.131 1517.28 877.219 1518.86 876.363C1520.43 875.506 1521.72 874.568 1521.72 874.277C1521.72 873.986 1522.55 873.394 1523.58 872.961C1524.6 872.528 1525.93 871.624 1526.53 870.951C1527.13 870.278 1527.85 869.727 1528.14 869.727C1528.43 869.727 1529.79 868.955 1531.16 868.011C1532.53 867.067 1533.81 866.294 1534 866.294C1534.2 866.294 1534.87 865.814 1535.5 865.226C1536.13 864.638 1537.6 863.673 1538.77 863.08C1539.93 862.488 1541.09 861.679 1541.35 861.284C1541.6 860.888 1542.89 860.017 1544.21 859.347C1545.53 858.678 1546.74 857.959 1546.89 857.75C1547.05 857.542 1548.47 856.627 1550.04 855.719C1551.61 854.811 1553.25 853.72 1553.68 853.295C1554.1 852.871 1555.52 851.983 1556.82 851.322C1558.13 850.661 1560.22 849.422 1561.48 848.568C1567.94 844.191 1570.14 842.835 1570.79 842.835C1571.18 842.835 1571.5 842.577 1571.5 842.263C1571.5 841.948 1571.88 841.69 1572.36 841.69C1572.83 841.69 1573.21 841.464 1573.21 841.187C1573.21 840.911 1573.99 840.362 1574.95 839.966C1575.9 839.571 1577.61 838.51 1578.75 837.608C1579.88 836.707 1581.06 835.969 1581.37 835.969C1581.68 835.969 1583.48 834.939 1585.37 833.68C1587.25 832.421 1588.9 831.391 1589.03 831.391C1589.15 831.391 1590.28 830.744 1591.53 829.953C1592.79 829.163 1593.81 828.636 1593.81 828.783C1593.81 828.93 1594.44 828.419 1595.22 827.646C1595.99 826.874 1596.97 826.241 1597.39 826.241C1597.82 826.241 1599.05 825.582 1600.14 824.775C1601.22 823.968 1603.31 822.786 1604.79 822.147C1606.26 821.508 1607.6 820.624 1607.77 820.181C1607.94 819.737 1608.51 819.375 1609.05 819.375C1609.58 819.375 1610.86 818.731 1611.89 817.945C1612.92 817.158 1614.05 816.514 1614.4 816.514C1614.75 816.514 1615.58 815.998 1616.26 815.366C1616.94 814.735 1618.34 813.914 1619.37 813.542C1621.24 812.864 1622.13 811.713 1621.53 810.741C1621.11 810.058 1620.13 810.07 1620.13 810.757ZM1479.84 1349.04C1480.25 1349.2 1480.75 1349.18 1480.94 1348.99C1481.13 1348.8 1480.79 1348.67 1480.19 1348.69C1479.52 1348.72 1479.38 1348.85 1479.84 1349.04ZM1450.66 1352.47C1451.07 1352.64 1451.57 1352.61 1451.76 1352.42C1451.95 1352.23 1451.61 1352.1 1451 1352.12C1450.34 1352.15 1450.2 1352.29 1450.66 1352.47ZM1196.57 1544.71C1196.97 1544.87 1197.61 1544.87 1198 1544.71C1198.4 1544.55 1198.07 1544.42 1197.29 1544.42C1196.5 1544.42 1196.18 1544.55 1196.57 1544.71ZM1327.9 1544.73C1328.46 1544.88 1329.23 1544.87 1329.62 1544.71C1330 1544.55 1329.55 1544.43 1328.6 1544.44C1327.66 1544.46 1327.34 1544.58 1327.9 1544.73ZM1254.94 1631.11C1255.33 1631.27 1255.97 1631.27 1256.37 1631.11C1256.76 1630.95 1256.44 1630.82 1255.65 1630.82C1254.86 1630.82 1254.54 1630.95 1254.94 1631.11ZM1312.73 1631.11C1313.12 1631.27 1313.76 1631.27 1314.16 1631.11C1314.55 1630.95 1314.23 1630.82 1313.44 1630.82C1312.65 1630.82 1312.33 1630.95 1312.73 1631.11ZM1272.12 1631.72C1273.46 1631.85 1275.52 1631.84 1276.69 1631.72C1277.87 1631.6 1276.76 1631.5 1274.25 1631.5C1271.73 1631.5 1270.77 1631.6 1272.12 1631.72ZM1293.26 1631.72C1294.28 1631.84 1296.08 1631.85 1297.26 1631.72C1298.45 1631.6 1297.62 1631.5 1295.42 1631.49C1293.21 1631.49 1292.24 1631.59 1293.26 1631.72ZM1166.28 1789.05C1166.7 1789.21 1167.19 1789.19 1167.38 1789C1167.57 1788.81 1167.23 1788.68 1166.63 1788.7C1165.96 1788.73 1165.83 1788.86 1166.28 1789.05ZM1493.57 1859.43C1493.99 1859.59 1494.48 1859.57 1494.67 1859.38C1494.86 1859.19 1494.52 1859.06 1493.92 1859.08C1493.25 1859.11 1493.12 1859.24 1493.57 1859.43Z" fill="#E76F00"/>
</svg>
