<svg width="2630" height="2630" viewBox="0 0 2630 2630" fill="none" xmlns="http://www.w3.org/2000/svg">
<path d="M1314.54 1456.5C1392.65 1456.5 1455.96 1393.18 1455.96 1315.07C1455.96 1236.97 1392.65 1173.65 1314.54 1173.65C1236.43 1173.65 1173.12 1236.97 1173.12 1315.07C1173.12 1393.18 1236.43 1456.5 1314.54 1456.5Z" fill="#39C1D7"/>
<path d="M2092.37 1315.06C2092.37 1206.51 1961.62 1112.56 1758.78 1056.65C1810.93 852.796 1794.87 692.495 1701.69 638.099C1664.93 616.635 1620.34 612.718 1569.17 626.408C1492.06 647.043 1403.71 707.376 1314.85 795.997C1225.99 707.376 1137.63 647.064 1060.53 626.408C1009.35 612.698 964.763 616.635 928.008 638.099C834.827 692.495 818.772 852.776 870.916 1056.65C668.074 1112.56 537.33 1206.51 537.33 1315.06C537.33 1423.61 668.074 1517.57 870.916 1573.5C818.772 1777.35 834.827 1937.65 928.008 1992.05C950.465 2005.15 975.83 2011.76 1003.86 2011.73C1021.69 2011.73 1040.62 2009.07 1060.53 2003.74C1137.63 1983.08 1225.99 1922.77 1314.85 1834.15C1403.71 1922.77 1492.06 1983.08 1569.17 2003.74C1589.08 2009.07 1608 2011.73 1625.84 2011.73C1653.87 2011.73 1679.23 2005.17 1701.69 1992.05C1794.87 1937.65 1810.91 1777.35 1758.78 1573.5C1961.62 1517.57 2092.37 1423.61 2092.37 1315.06ZM1584.84 684.903C1599.48 681.006 1613.05 679.027 1625.55 679.027C1642.92 679.027 1658.19 682.823 1671.13 690.395C1733.58 726.861 1746.32 860.408 1699.81 1041.95C1635.73 1027.53 1565.82 1016.69 1491.52 1009.99C1447.92 947.131 1402.56 889.908 1356.85 839.793C1438 758.481 1517.61 702.914 1584.84 684.903ZM1532.05 1442.25C1508.24 1483.97 1483.18 1523.93 1457.47 1562.17C1411.83 1565.58 1364.25 1567.46 1314.85 1567.46C1265.45 1567.46 1217.87 1565.58 1172.25 1562.17C1146.54 1523.93 1121.48 1483.97 1097.67 1442.25C1073.05 1399.12 1050.96 1356.64 1031.17 1315.08C1050.96 1273.53 1073.05 1231.05 1097.67 1187.9C1121.5 1146.16 1146.54 1106.2 1172.27 1067.96C1217.89 1064.55 1265.45 1062.67 1314.85 1062.67C1364.25 1062.67 1411.81 1064.55 1457.45 1067.96C1483.16 1106.2 1508.22 1146.18 1532.05 1187.9C1556.67 1231.03 1578.76 1273.51 1598.55 1315.08C1578.76 1356.64 1556.67 1399.12 1532.05 1442.25ZM1630.78 1386.64C1651.81 1436.33 1669.17 1484.17 1683.23 1529.64C1637.29 1539.88 1587.69 1548.42 1534.71 1554.74C1551.72 1527.96 1568.48 1500.58 1584.66 1472.26C1601.04 1443.6 1616.32 1415.03 1630.78 1386.64ZM1314.85 1746.3C1281.81 1709.77 1248.83 1669.33 1216.62 1625.57C1248.77 1627.12 1281.49 1628.03 1314.85 1628.03C1348.21 1628.03 1380.93 1627.12 1413.08 1625.57C1380.87 1669.31 1347.89 1709.75 1314.85 1746.3ZM1094.96 1554.74C1042.01 1548.42 992.39 1539.88 946.446 1529.64C960.502 1484.17 977.87 1436.31 998.893 1386.64C1013.35 1415.03 1028.66 1443.6 1045.02 1472.26C1061.22 1500.6 1077.96 1527.98 1094.96 1554.74ZM998.913 1243.5C977.89 1193.81 960.502 1145.96 946.466 1100.47C992.411 1090.23 1042.03 1081.69 1095 1075.37C1077.98 1102.14 1061.24 1129.54 1045.06 1157.87C1028.66 1186.54 1013.37 1215.11 998.913 1243.5ZM1314.85 883.851C1347.89 920.378 1380.87 960.821 1413.08 1004.58C1380.93 1003 1348.21 1002.09 1314.85 1002.09C1281.49 1002.09 1248.77 1003 1216.62 1004.56C1248.83 960.821 1281.81 920.378 1314.85 883.851ZM1584.66 1157.89C1568.48 1129.54 1551.72 1102.16 1534.71 1075.39C1587.69 1081.71 1637.29 1090.25 1683.25 1100.49C1669.19 1145.98 1651.83 1193.81 1630.8 1243.52C1616.32 1215.11 1601.04 1186.54 1584.66 1157.89ZM958.563 690.395C971.529 682.823 986.756 679.027 1004.14 679.027C1016.62 679.027 1030.24 681.006 1044.86 684.903C1112.09 702.914 1191.7 758.461 1272.84 839.773C1227.14 889.888 1181.78 947.131 1138.18 1009.97C1063.88 1016.67 993.945 1027.51 929.886 1041.93C883.376 860.388 896.119 726.841 958.563 690.395ZM597.916 1315.06C597.916 1242.45 706.991 1164.84 887.415 1115.15C906.985 1178.93 932.673 1246.11 964.279 1315.06C932.673 1384.02 906.985 1451.2 887.415 1514.98C706.991 1465.29 597.916 1387.67 597.916 1315.06ZM1044.86 1945.22C1009.86 1954.55 980.839 1952.71 958.563 1939.75C896.119 1903.29 883.396 1769.74 929.886 1588.2C993.945 1602.61 1063.88 1613.46 1138.16 1620.16C1181.76 1683.02 1227.12 1740.24 1272.82 1790.37C1191.7 1871.67 1112.09 1927.21 1044.86 1945.22ZM1671.13 1939.75C1648.86 1952.76 1619.86 1954.57 1584.84 1945.22C1517.61 1927.21 1438 1871.67 1356.85 1790.35C1402.56 1740.24 1447.92 1683 1491.52 1620.14C1565.82 1613.43 1635.73 1602.59 1699.79 1588.18C1746.32 1769.74 1733.58 1903.29 1671.13 1939.75ZM1742.28 1514.98C1722.71 1451.2 1697.02 1384.02 1665.42 1315.06C1697.02 1246.11 1722.71 1178.91 1742.28 1115.15C1922.71 1164.84 2031.78 1242.45 2031.78 1315.06C2031.78 1387.67 1922.71 1465.29 1742.28 1514.98Z" fill="#39C1D7"/>
<circle cx="1314.57" cy="1315.4" r="1288.54" stroke="#39C1D7" stroke-width="52"/>
</svg>
