<svg width="2630" height="2630" viewBox="0 0 2630 2630" fill="none" xmlns="http://www.w3.org/2000/svg">
<path fill-rule="evenodd" clip-rule="evenodd" d="M1883.79 800.264C1950.27 997.916 1982.18 1166.38 1979.89 1308.04C1979.92 1309.95 1980.05 1311.83 1980.18 1313.71C1980.34 1315.86 1980.49 1318 1980.49 1320.18C1980.49 1687.42 1682.84 1985.11 1315.66 1985.11C948.472 1985.11 650.828 1687.42 650.828 1320.18C650.828 952.933 948.472 655.242 1315.66 655.242C1481 655.242 1631.92 715.983 1748.23 815.857C1752.75 808.243 1757.07 800.53 1760.86 792.65L1831.66 645.268L1883.79 800.264ZM1366.61 1752.3C1539.63 1755.32 1723.47 1747.64 1827.32 1604.68C1983.12 1390.27 1896.19 1043.36 1823.96 821.8C1759.45 960.278 1600.89 1066.49 1463.81 1100.12C1407.6 1113.97 1354.21 1116.77 1301.96 1119.52C1234.88 1123.05 1169.69 1126.47 1102.87 1153.06C831.411 1260.93 835.933 1595.04 985.246 1670.11L994.125 1674.93C994.125 1674.93 1213.47 1630 1334.92 1583.71C1512.17 1515.95 1706.67 1349.33 1770.85 1155.38C1736.17 1356.97 1569.56 1550.74 1401.03 1639.31C1347.01 1667.96 1293.67 1683.9 1227.48 1703.68C1184.02 1716.67 1135.02 1731.32 1076.66 1752.3H1141.11H1366.61ZM999.945 1818.76C1014.91 1818.76 1029.24 1811.95 1038.62 1800.32C1055.85 1779.05 1052.52 1747.48 1031.24 1730.23C1022.46 1722.99 1011.28 1719.06 999.945 1719.06C972.743 1719.06 950.229 1741.56 950.229 1768.91C950.229 1796.26 972.576 1818.76 999.945 1818.76Z" fill="#8BC34A"/>
<circle cx="1315.33" cy="1315.07" r="1288.54" stroke="#8BC34A" stroke-width="52"/>
</svg>
